<?xml version="1.0" encoding="UTF-8" standalone="no"?><!DOCTYPE svg PUBLIC "-//W3C//DTD SVG 1.1//EN" "http://www.w3.org/Graphics/SVG/1.1/DTD/svg11.dtd"><!-- Generated by graphviz version 2.40.1 (20161225.0304)
 --><!-- Title: %0 Pages: 1 --><svg xmlns="http://www.w3.org/2000/svg" xmlns:xlink="http://www.w3.org/1999/xlink" width="2486pt" height="435pt" viewBox="0.00 0.00 2485.69 435.14">
<g id="graph0" class="graph" transform="scale(1 1) rotate(0) translate(4 431.1403)">
<title>%0</title>
<polygon fill="#ffffff" stroke="transparent" points="-4,4 -4,-431.1403 2481.688,-431.1403 2481.688,4 -4,4"/>
<!-- Idle -->
<g id="node1" class="node">
<title>Idle</title>
<path fill="none" stroke="#000000" d="M52.6,-164.3403C52.6,-164.3403 82.6,-164.3403 82.6,-164.3403 88.6,-164.3403 94.6,-170.3403 94.6,-176.3403 94.6,-176.3403 94.6,-188.3403 94.6,-188.3403 94.6,-194.3403 88.6,-200.3403 82.6,-200.3403 82.6,-200.3403 52.6,-200.3403 52.6,-200.3403 46.6,-200.3403 40.6,-194.3403 40.6,-188.3403 40.6,-188.3403 40.6,-176.3403 40.6,-176.3403 40.6,-170.3403 46.6,-164.3403 52.6,-164.3403"/>
<text text-anchor="middle" x="67.6" y="-178.2403" font-family="Times,serif" font-size="14.00" fill="#000000">Idle</text>
</g>
<!-- VersionCheck -->
<g id="node3" class="node">
<title>VersionCheck</title>
<path fill="none" stroke="#000000" d="M225.7922,-229.1403C225.7922,-229.1403 387.2902,-229.1403 387.2902,-229.1403 393.2902,-229.1403 399.2902,-235.1403 399.2902,-241.1403 399.2902,-241.1403 399.2902,-283.5403 399.2902,-283.5403 399.2902,-289.5403 393.2902,-295.5403 387.2902,-295.5403 387.2902,-295.5403 225.7922,-295.5403 225.7922,-295.5403 219.7922,-295.5403 213.7922,-289.5403 213.7922,-283.5403 213.7922,-283.5403 213.7922,-241.1403 213.7922,-241.1403 213.7922,-235.1403 219.7922,-229.1403 225.7922,-229.1403"/>
<text text-anchor="middle" x="306.5412" y="-278.9403" font-family="Times,serif" font-size="14.00" fill="#000000">VersionCheck</text>
<polyline fill="none" stroke="#000000" points="213.7922,-270.7403 399.2902,-270.7403 "/>
<text text-anchor="middle" x="306.5412" y="-254.1403" font-family="Times,serif" font-size="14.00" fill="#000000">entry / CheckVersion</text>
<text text-anchor="middle" x="306.5412" y="-237.3403" font-family="Times,serif" font-size="14.00" fill="#000000">exit / CancelCurrentOperation</text>
</g>
<!-- Idle&#45;&gt;VersionCheck -->
<g id="edge1" class="edge">
<title>Idle-&gt;VersionCheck</title>
<path fill="none" stroke="#000000" d="M94.6193,-177.9902C121.0936,-174.7837 162.2391,-172.6484 195.7922,-183.5403 220.5374,-191.5731 244.5096,-207.3022 263.7852,-222.6087"/>
<polygon fill="#000000" stroke="#000000" points="261.7901,-225.4985 271.7471,-229.1191 266.2212,-220.0794 261.7901,-225.4985"/>
<text text-anchor="middle" x="154.1961" y="-188.5403" font-family="Times,serif" font-size="14.00" fill="#000000">Enable</text>
</g>
<!-- WaitForSessionId -->
<g id="node2" class="node">
<title>WaitForSessionId</title>
<path fill="none" stroke="#000000" d="M836.6929,-309.3403C836.6929,-309.3403 929.7841,-309.3403 929.7841,-309.3403 935.7841,-309.3403 941.7841,-315.3403 941.7841,-321.3403 941.7841,-321.3403 941.7841,-333.3403 941.7841,-333.3403 941.7841,-339.3403 935.7841,-345.3403 929.7841,-345.3403 929.7841,-345.3403 836.6929,-345.3403 836.6929,-345.3403 830.6929,-345.3403 824.6929,-339.3403 824.6929,-333.3403 824.6929,-333.3403 824.6929,-321.3403 824.6929,-321.3403 824.6929,-315.3403 830.6929,-309.3403 836.6929,-309.3403"/>
<text text-anchor="middle" x="883.2385" y="-323.2403" font-family="Times,serif" font-size="14.00" fill="#000000">WaitForSessionId</text>
</g>
<!-- WaitForSessionId&#45;&gt;Idle -->
<g id="edge3" class="edge">
<title>WaitForSessionId-&gt;Idle</title>
<path fill="none" stroke="#000000" d="M831.0139,-345.3769C696.7473,-388.1788 334.5376,-480.6571 112.6,-318.3403 94.9688,-305.4456 80.3462,-246.2136 72.9047,-210.3064"/>
<polygon fill="#000000" stroke="#000000" points="76.3196,-209.5344 70.915,-200.4218 69.4573,-210.9158 76.3196,-209.5344"/>
<text text-anchor="middle" x="448.002" y="-414.5403" font-family="Times,serif" font-size="14.00" fill="#000000">Disable</text>
</g>
<!-- Connecting -->
<g id="node4" class="node">
<title>Connecting</title>
<path fill="none" stroke="#000000" d="M1111.0587,-232.1403C1111.0587,-232.1403 1272.5567,-232.1403 1272.5567,-232.1403 1278.5567,-232.1403 1284.5567,-238.1403 1284.5567,-244.1403 1284.5567,-244.1403 1284.5567,-286.5403 1284.5567,-286.5403 1284.5567,-292.5403 1278.5567,-298.5403 1272.5567,-298.5403 1272.5567,-298.5403 1111.0587,-298.5403 1111.0587,-298.5403 1105.0587,-298.5403 1099.0587,-292.5403 1099.0587,-286.5403 1099.0587,-286.5403 1099.0587,-244.1403 1099.0587,-244.1403 1099.0587,-238.1403 1105.0587,-232.1403 1111.0587,-232.1403"/>
<text text-anchor="middle" x="1191.8077" y="-281.9403" font-family="Times,serif" font-size="14.00" fill="#000000">Connecting</text>
<polyline fill="none" stroke="#000000" points="1099.0587,-273.7403 1284.5567,-273.7403 "/>
<text text-anchor="middle" x="1191.8077" y="-257.1403" font-family="Times,serif" font-size="14.00" fill="#000000">entry / Connect</text>
<text text-anchor="middle" x="1191.8077" y="-240.3403" font-family="Times,serif" font-size="14.00" fill="#000000">exit / CancelCurrentOperation</text>
</g>
<!-- WaitForSessionId&#45;&gt;Connecting -->
<g id="edge2" class="edge">
<title>WaitForSessionId-&gt;Connecting</title>
<path fill="none" stroke="#000000" d="M942.0043,-315.5327C983.4744,-307.2002 1040.1238,-295.8178 1088.9924,-285.9988"/>
<polygon fill="#000000" stroke="#000000" points="1089.8597,-289.3945 1098.9743,-283.9931 1088.4807,-282.5317 1089.8597,-289.3945"/>
<text text-anchor="middle" x="1028.957" y="-311.5403" font-family="Times,serif" font-size="14.00" fill="#000000">SessionIdChanged</text>
</g>
<!-- VersionCheck&#45;&gt;Idle -->
<g id="edge4" class="edge">
<title>VersionCheck-&gt;Idle</title>
<path fill="none" stroke="#000000" d="M213.4345,-294.0041C179.4023,-299.9053 142.0622,-299.2316 112.6,-280.3403 88.8192,-265.0921 77.4385,-233.7726 72.1019,-210.6246"/>
<polygon fill="#000000" stroke="#000000" points="75.4938,-209.742 70.0525,-200.6512 68.637,-211.151 75.4938,-209.742"/>
<text text-anchor="middle" x="154.1961" y="-301.5403" font-family="Times,serif" font-size="14.00" fill="#000000">Disable</text>
</g>
<!-- VersionCheck&#45;&gt;Idle -->
<g id="edge5" class="edge">
<title>VersionCheck-&gt;Idle</title>
<path fill="none" stroke="#000000" d="M213.684,-258.6112C172.7772,-255.5968 130.0666,-250.1552 112.6,-240.3403 99.7619,-233.1263 89.3454,-220.6086 81.7799,-209.0446"/>
<polygon fill="#000000" stroke="#000000" points="84.7558,-207.202 76.5574,-200.491 78.7813,-210.8498 84.7558,-207.202"/>
<text text-anchor="middle" x="154.1961" y="-261.5403" font-family="Times,serif" font-size="14.00" fill="#000000">WrongVersion</text>
</g>
<!-- VersionCheck&#45;&gt;Idle -->
<g id="edge6" class="edge">
<title>VersionCheck-&gt;Idle</title>
<path fill="none" stroke="#000000" d="M224.4427,-229.1312C214.852,-225.6936 205.1525,-222.4133 195.7922,-219.5403 159.5162,-208.4063 148.8101,-211.6869 112.6,-200.3403 109.8901,-199.4912 107.1126,-198.5531 104.3324,-197.5642"/>
<polygon fill="#000000" stroke="#000000" points="105.5564,-194.2853 94.9639,-194.0622 103.1054,-200.8422 105.5564,-194.2853"/>
<text text-anchor="middle" x="154.1961" y="-224.5403" font-family="Times,serif" font-size="14.00" fill="#000000">SendingError</text>
</g>
<!-- Decision1 -->
<g id="node9" class="node">
<title>Decision1</title>
<polygon fill="none" stroke="#000000" points="560.8805,-283.3403 496.5466,-265.3403 560.8805,-247.3403 625.2145,-265.3403 560.8805,-283.3403"/>
<text text-anchor="middle" x="560.8805" y="-261.1403" font-family="Times,serif" font-size="14.00" fill="#000000">Function</text>
</g>
<!-- VersionCheck&#45;&gt;Decision1 -->
<g id="edge7" class="edge">
<title>VersionCheck-&gt;Decision1</title>
<path fill="none" stroke="#000000" d="M399.4432,-263.4362C428.8907,-263.7835 460.9874,-264.1621 488.7484,-264.4895"/>
<polygon fill="#000000" stroke="#000000" points="488.7264,-267.9894 498.767,-264.6077 488.809,-260.9899 488.7264,-267.9894"/>
<text text-anchor="middle" x="448.002" y="-269.5403" font-family="Times,serif" font-size="14.00" fill="#000000">VersionOk</text>
</g>
<!-- Connecting&#45;&gt;Idle -->
<g id="edge12" class="edge">
<title>Connecting-&gt;Idle</title>
<path fill="none" stroke="#000000" d="M1138.8958,-232.0994C1079.1711,-197.8216 977.9564,-149.3403 883.2385,-149.3403 306.5412,-149.3403 306.5412,-149.3403 306.5412,-149.3403 219.7411,-149.3403 198.1729,-157.796 112.6,-172.3403 109.9544,-172.79 107.2298,-173.2934 104.4924,-173.8288"/>
<polygon fill="#000000" stroke="#000000" points="103.7232,-170.4137 94.6406,-175.8687 105.1426,-177.2684 103.7232,-170.4137"/>
<text text-anchor="middle" x="560.8805" y="-153.5403" font-family="Times,serif" font-size="14.00" fill="#000000">ConnectionFailed</text>
</g>
<!-- SendSessionId -->
<g id="node5" class="node">
<title>SendSessionId</title>
<path fill="none" stroke="#000000" d="M1392.4277,-132.1403C1392.4277,-132.1403 1553.9257,-132.1403 1553.9257,-132.1403 1559.9257,-132.1403 1565.9257,-138.1403 1565.9257,-144.1403 1565.9257,-144.1403 1565.9257,-186.5403 1565.9257,-186.5403 1565.9257,-192.5403 1559.9257,-198.5403 1553.9257,-198.5403 1553.9257,-198.5403 1392.4277,-198.5403 1392.4277,-198.5403 1386.4277,-198.5403 1380.4277,-192.5403 1380.4277,-186.5403 1380.4277,-186.5403 1380.4277,-144.1403 1380.4277,-144.1403 1380.4277,-138.1403 1386.4277,-132.1403 1392.4277,-132.1403"/>
<text text-anchor="middle" x="1473.1767" y="-181.9403" font-family="Times,serif" font-size="14.00" fill="#000000">SendSessionId</text>
<polyline fill="none" stroke="#000000" points="1380.4277,-173.7403 1565.9257,-173.7403 "/>
<text text-anchor="middle" x="1473.1767" y="-157.1403" font-family="Times,serif" font-size="14.00" fill="#000000">entry / SendSessionId</text>
<text text-anchor="middle" x="1473.1767" y="-140.3403" font-family="Times,serif" font-size="14.00" fill="#000000">exit / CancelCurrentOperation</text>
</g>
<!-- Connecting&#45;&gt;SendSessionId -->
<g id="edge10" class="edge">
<title>Connecting-&gt;SendSessionId</title>
<path fill="none" stroke="#000000" d="M1284.7182,-232.3195C1312.3305,-222.5059 1342.729,-211.7021 1370.902,-201.6893"/>
<polygon fill="#000000" stroke="#000000" points="1372.1132,-204.9734 1380.3637,-198.3266 1369.769,-198.3776 1372.1132,-204.9734"/>
<text text-anchor="middle" x="1332.4922" y="-228.5403" font-family="Times,serif" font-size="14.00" fill="#000000">Connected</text>
</g>
<!-- Disconnecting -->
<g id="node8" class="node">
<title>Disconnecting</title>
<path fill="none" stroke="#000000" d="M2079.9855,-182.1403C2079.9855,-182.1403 2241.4835,-182.1403 2241.4835,-182.1403 2247.4835,-182.1403 2253.4835,-188.1403 2253.4835,-194.1403 2253.4835,-194.1403 2253.4835,-236.5403 2253.4835,-236.5403 2253.4835,-242.5403 2247.4835,-248.5403 2241.4835,-248.5403 2241.4835,-248.5403 2079.9855,-248.5403 2079.9855,-248.5403 2073.9855,-248.5403 2067.9855,-242.5403 2067.9855,-236.5403 2067.9855,-236.5403 2067.9855,-194.1403 2067.9855,-194.1403 2067.9855,-188.1403 2073.9855,-182.1403 2079.9855,-182.1403"/>
<text text-anchor="middle" x="2160.7345" y="-231.9403" font-family="Times,serif" font-size="14.00" fill="#000000">Disconnecting</text>
<polyline fill="none" stroke="#000000" points="2067.9855,-223.7403 2253.4835,-223.7403 "/>
<text text-anchor="middle" x="2160.7345" y="-207.1403" font-family="Times,serif" font-size="14.00" fill="#000000">entry / Disconnect</text>
<text text-anchor="middle" x="2160.7345" y="-190.3403" font-family="Times,serif" font-size="14.00" fill="#000000">exit / CancelCurrentOperation</text>
</g>
<!-- Connecting&#45;&gt;Disconnecting -->
<g id="edge11" class="edge">
<title>Connecting-&gt;Disconnecting</title>
<path fill="none" stroke="#000000" d="M1284.7744,-262.0544C1425.1148,-257.0139 1699.4471,-246.8484 1932.4455,-236.3403 1984.7004,-233.9837 1997.9026,-235.1882 2049.9855,-230.3403 2052.5211,-230.1043 2055.0879,-229.8531 2057.6759,-229.5888"/>
<polygon fill="#000000" stroke="#000000" points="2058.1729,-233.0557 2067.7427,-228.5093 2057.4265,-226.0956 2058.1729,-233.0557"/>
<text text-anchor="middle" x="1656.4366" y="-255.5403" font-family="Times,serif" font-size="14.00" fill="#000000">Disable</text>
</g>
<!-- SendSessionId&#45;&gt;SendSessionId -->
<g id="edge13" class="edge">
<title>SendSessionId-&gt;SendSessionId</title>
<path fill="none" stroke="#000000" d="M1446.9523,-198.6561C1447.4821,-208.9538 1456.2236,-217.0403 1473.1767,-217.0403 1484.3022,-217.0403 1491.8912,-213.5578 1495.9437,-208.2531"/>
<polygon fill="#000000" stroke="#000000" points="1499.3046,-209.2505 1499.4011,-198.6561 1492.7189,-206.878 1499.3046,-209.2505"/>
<text text-anchor="middle" x="1473.1767" y="-221.2403" font-family="Times,serif" font-size="14.00" fill="#000000">SessionIdChanged / SendSessionId</text>
</g>
<!-- Working -->
<g id="node6" class="node">
<title>Working</title>
<path fill="none" stroke="#000000" d="M1758.9475,-74.1403C1758.9475,-74.1403 1920.4455,-74.1403 1920.4455,-74.1403 1926.4455,-74.1403 1932.4455,-80.1403 1932.4455,-86.1403 1932.4455,-86.1403 1932.4455,-128.5403 1932.4455,-128.5403 1932.4455,-134.5403 1926.4455,-140.5403 1920.4455,-140.5403 1920.4455,-140.5403 1758.9475,-140.5403 1758.9475,-140.5403 1752.9475,-140.5403 1746.9475,-134.5403 1746.9475,-128.5403 1746.9475,-128.5403 1746.9475,-86.1403 1746.9475,-86.1403 1746.9475,-80.1403 1752.9475,-74.1403 1758.9475,-74.1403"/>
<text text-anchor="middle" x="1839.6965" y="-123.9403" font-family="Times,serif" font-size="14.00" fill="#000000">Working</text>
<polyline fill="none" stroke="#000000" points="1746.9475,-115.7403 1932.4455,-115.7403 "/>
<text text-anchor="middle" x="1839.6965" y="-99.1403" font-family="Times,serif" font-size="14.00" fill="#000000">exit / CancelCurrentOperation</text>
<text text-anchor="middle" x="1839.6965" y="-82.3403" font-family="Times,serif" font-size="14.00" fill="#000000">exit / ClearCache</text>
</g>
<!-- SendSessionId&#45;&gt;Working -->
<g id="edge14" class="edge">
<title>SendSessionId-&gt;Working</title>
<path fill="none" stroke="#000000" d="M1566.0436,-141.1093C1572.0773,-139.8199 1578.0765,-138.6152 1583.9257,-137.5403 1633.9098,-128.3552 1689.9277,-121.3731 1736.7686,-116.4484"/>
<polygon fill="#000000" stroke="#000000" points="1737.3386,-119.9082 1746.9253,-115.3975 1736.6181,-112.9454 1737.3386,-119.9082"/>
<text text-anchor="middle" x="1656.4366" y="-142.5403" font-family="Times,serif" font-size="14.00" fill="#000000">Subscribed</text>
</g>
<!-- SendSessionId&#45;&gt;Disconnecting -->
<g id="edge15" class="edge">
<title>SendSessionId-&gt;Disconnecting</title>
<path fill="none" stroke="#000000" d="M1566.0152,-187.562C1572.0558,-188.616 1578.0643,-189.5582 1583.9257,-190.3403 1748.602,-212.3161 1941.8329,-216.3153 2057.6117,-216.4036"/>
<polygon fill="#000000" stroke="#000000" points="2057.881,-219.9037 2067.8802,-216.4013 2057.8793,-212.9037 2057.881,-219.9037"/>
<text text-anchor="middle" x="1839.6965" y="-219.5403" font-family="Times,serif" font-size="14.00" fill="#000000">Disable</text>
</g>
<!-- Working&#45;&gt;SendSessionId -->
<g id="edge16" class="edge">
<title>Working-&gt;SendSessionId</title>
<path fill="none" stroke="#000000" d="M1771.8463,-140.6179C1757.9518,-146.1449 1743.2091,-151.1188 1728.9475,-154.3403 1679.4701,-165.517 1623.2748,-168.9146 1576.1847,-169.2477"/>
<polygon fill="#000000" stroke="#000000" points="1575.9634,-165.7482 1565.9722,-169.2734 1575.981,-172.7482 1575.9634,-165.7482"/>
<text text-anchor="middle" x="1656.4366" y="-173.5403" font-family="Times,serif" font-size="14.00" fill="#000000">SessionIdChanged</text>
</g>
<!-- Reconnecting -->
<g id="node7" class="node">
<title>Reconnecting</title>
<path fill="none" stroke="#000000" d="M2079.9855,-40.1403C2079.9855,-40.1403 2241.4835,-40.1403 2241.4835,-40.1403 2247.4835,-40.1403 2253.4835,-46.1403 2253.4835,-52.1403 2253.4835,-52.1403 2253.4835,-94.5403 2253.4835,-94.5403 2253.4835,-100.5403 2247.4835,-106.5403 2241.4835,-106.5403 2241.4835,-106.5403 2079.9855,-106.5403 2079.9855,-106.5403 2073.9855,-106.5403 2067.9855,-100.5403 2067.9855,-94.5403 2067.9855,-94.5403 2067.9855,-52.1403 2067.9855,-52.1403 2067.9855,-46.1403 2073.9855,-40.1403 2079.9855,-40.1403"/>
<text text-anchor="middle" x="2160.7345" y="-89.9403" font-family="Times,serif" font-size="14.00" fill="#000000">Reconnecting</text>
<polyline fill="none" stroke="#000000" points="2067.9855,-81.7403 2253.4835,-81.7403 "/>
<text text-anchor="middle" x="2160.7345" y="-65.1403" font-family="Times,serif" font-size="14.00" fill="#000000">entry / Connect</text>
<text text-anchor="middle" x="2160.7345" y="-48.3403" font-family="Times,serif" font-size="14.00" fill="#000000">exit / CancelCurrentOperation</text>
</g>
<!-- Working&#45;&gt;Reconnecting -->
<g id="edge17" class="edge">
<title>Working-&gt;Reconnecting</title>
<path fill="none" stroke="#000000" d="M1932.509,-101.9889C1969.1721,-99.4285 2011.6287,-95.9082 2049.9855,-91.3403 2052.5242,-91.038 2055.0938,-90.7194 2057.6843,-90.3869"/>
<polygon fill="#000000" stroke="#000000" points="2058.3108,-93.8344 2067.7593,-89.041 2057.3838,-86.896 2058.3108,-93.8344"/>
<text text-anchor="middle" x="2000.2155" y="-105.5403" font-family="Times,serif" font-size="14.00" fill="#000000">SendingError</text>
</g>
<!-- Working&#45;&gt;Reconnecting -->
<g id="edge18" class="edge">
<title>Working-&gt;Reconnecting</title>
<path fill="none" stroke="#000000" d="M1932.5162,-74.1356C1938.5342,-72.7182 1944.5452,-71.495 1950.4455,-70.5403 1985.1366,-64.9276 2023.4674,-63.9311 2057.7972,-64.8731"/>
<polygon fill="#000000" stroke="#000000" points="2057.7287,-68.3727 2067.8393,-65.2062 2057.9608,-61.3765 2057.7287,-68.3727"/>
<text text-anchor="middle" x="2000.2155" y="-75.5403" font-family="Times,serif" font-size="14.00" fill="#000000">ConnectionFailed</text>
</g>
<!-- Working&#45;&gt;Disconnecting -->
<g id="edge19" class="edge">
<title>Working-&gt;Disconnecting</title>
<path fill="none" stroke="#000000" d="M1932.6862,-122.361C1969.8554,-129.8641 2012.6236,-140.4162 2049.9855,-154.5403 2066.1931,-160.6674 2082.9437,-168.8026 2098.3589,-177.123"/>
<polygon fill="#000000" stroke="#000000" points="2096.8188,-180.2705 2107.2665,-182.0296 2100.1961,-174.1391 2096.8188,-180.2705"/>
<text text-anchor="middle" x="2000.2155" y="-159.5403" font-family="Times,serif" font-size="14.00" fill="#000000">Disable</text>
</g>
<!-- Reconnecting&#45;&gt;Idle -->
<g id="edge20" class="edge">
<title>Reconnecting-&gt;Idle</title>
<path fill="none" stroke="#000000" d="M2067.9234,-58.722C2003.9503,-49.8951 1916.8771,-40.3403 1839.6965,-40.3403 306.5412,-40.3403 306.5412,-40.3403 306.5412,-40.3403 213.9631,-40.3403 184.9961,-58.6384 112.6,-116.3403 99.4708,-126.8047 88.6956,-142.1318 80.9842,-155.3822"/>
<polygon fill="#000000" stroke="#000000" points="77.9186,-153.6934 76.1437,-164.1385 84.0449,-157.08 77.9186,-153.6934"/>
<text text-anchor="middle" x="1028.957" y="-44.5403" font-family="Times,serif" font-size="14.00" fill="#000000">Disable</text>
</g>
<!-- Reconnecting&#45;&gt;Idle -->
<g id="edge21" class="edge">
<title>Reconnecting-&gt;Idle</title>
<path fill="none" stroke="#000000" d="M2067.8791,-40.6836C2004.4405,-21.247 1918.0037,-.3403 1839.6965,-.3403 306.5412,-.3403 306.5412,-.3403 306.5412,-.3403 216.8237,-.3403 177.9733,5.1052 112.6,-56.3403 85.2853,-82.014 74.5258,-125.3914 70.3036,-153.9487"/>
<polygon fill="#000000" stroke="#000000" points="66.8024,-153.7325 68.9847,-164.1002 73.744,-154.6345 66.8024,-153.7325"/>
<text text-anchor="middle" x="1028.957" y="-4.5403" font-family="Times,serif" font-size="14.00" fill="#000000">ConnectionFailed</text>
</g>
<!-- Decision2 -->
<g id="node10" class="node">
<title>Decision2</title>
<polygon fill="none" stroke="#000000" points="2413.5212,-363.3403 2349.1873,-345.3403 2413.5212,-327.3403 2477.8552,-345.3403 2413.5212,-363.3403"/>
<text text-anchor="middle" x="2413.5212" y="-341.1403" font-family="Times,serif" font-size="14.00" fill="#000000">Function</text>
</g>
<!-- Reconnecting&#45;&gt;Decision2 -->
<g id="edge22" class="edge">
<title>Reconnecting-&gt;Decision2</title>
<path fill="none" stroke="#000000" d="M2192.127,-106.7434C2210.117,-125.912 2233.1026,-150.4478 2253.4835,-172.3403 2303.8574,-226.4506 2362.8482,-290.3608 2393.1974,-323.2812"/>
<polygon fill="#000000" stroke="#000000" points="2390.9225,-325.9773 2400.2735,-330.9582 2396.0696,-321.2331 2390.9225,-325.9773"/>
<text text-anchor="middle" x="2301.419" y="-257.5403" font-family="Times,serif" font-size="14.00" fill="#000000">Connected</text>
</g>
<!-- Disconnecting&#45;&gt;Idle -->
<g id="edge25" class="edge">
<title>Disconnecting-&gt;Idle</title>
<path fill="none" stroke="#000000" d="M2067.7227,-210.2145C1961.9102,-202.768 1797.259,-185.7766 1746.9475,-150.3403 1733.2888,-140.72 1743.075,-126.258 1728.9475,-117.3403 1632.6767,-56.5715 1587.0228,-103.3403 1473.1767,-103.3403 306.5412,-103.3403 306.5412,-103.3403 306.5412,-103.3403 217.4146,-103.3403 194.4506,-119.0695 112.6,-154.3403 109.3757,-155.7297 106.1129,-157.327 102.8946,-159.0393"/>
<polygon fill="#000000" stroke="#000000" points="100.9733,-156.1055 94.0119,-164.0924 104.4346,-162.1899 100.9733,-156.1055"/>
<text text-anchor="middle" x="1028.957" y="-107.5403" font-family="Times,serif" font-size="14.00" fill="#000000">Disconnected</text>
</g>
<!-- Disconnecting&#45;&gt;Connecting -->
<g id="edge26" class="edge">
<title>Disconnecting-&gt;Connecting</title>
<path fill="none" stroke="#000000" d="M2067.701,-243.688C2061.7357,-245.0502 2055.7947,-246.2863 2049.9855,-247.3403 1749.0647,-301.9428 1668.2597,-274.0887 1362.4277,-275.3403 1335.8186,-275.4492 1329.1391,-276.538 1302.5567,-275.3403 1300.0254,-275.2263 1297.4626,-275.0977 1294.8781,-274.9562"/>
<polygon fill="#000000" stroke="#000000" points="1295.0151,-271.4582 1284.8229,-274.3511 1294.5945,-278.4456 1295.0151,-271.4582"/>
<text text-anchor="middle" x="1656.4366" y="-286.5403" font-family="Times,serif" font-size="14.00" fill="#000000">Enable</text>
</g>
<!-- Decision1&#45;&gt;WaitForSessionId -->
<g id="edge9" class="edge">
<title>Decision1-&gt;WaitForSessionId</title>
<path fill="none" stroke="#000000" d="M603.6594,-271.3937C649.7642,-278.1715 725.2016,-289.9972 789.6217,-303.5403 797.7606,-305.2514 806.2595,-307.1927 814.6734,-309.2109"/>
<polygon fill="#000000" stroke="#000000" points="813.9402,-312.6346 824.485,-311.6061 815.6003,-305.8343 813.9402,-312.6346"/>
<text text-anchor="middle" x="716.3345" y="-308.5403" font-family="Times,serif" font-size="14.00" fill="#000000">VersionOk [no session id]</text>
</g>
<!-- Decision1&#45;&gt;Connecting -->
<g id="edge8" class="edge">
<title>Decision1-&gt;Connecting</title>
<path fill="none" stroke="#000000" d="M625.1423,-265.3403C734.5101,-265.3403 957.7104,-265.3403 1088.9868,-265.3403"/>
<polygon fill="#000000" stroke="#000000" points="1089.0561,-268.8404 1099.056,-265.3403 1089.056,-261.8404 1089.0561,-268.8404"/>
<text text-anchor="middle" x="883.2385" y="-269.5403" font-family="Times,serif" font-size="14.00" fill="#000000">VersionOk [has session id]</text>
</g>
<!-- Decision2&#45;&gt;WaitForSessionId -->
<g id="edge24" class="edge">
<title>Decision2-&gt;WaitForSessionId</title>
<path fill="none" stroke="#000000" d="M2381.919,-354.6644C2334.3764,-367.8452 2241.418,-390.3403 2160.7345,-390.3403 1191.8077,-390.3403 1191.8077,-390.3403 1191.8077,-390.3403 1105.9137,-390.3403 1009.2396,-366.6163 947.3612,-348.2849"/>
<polygon fill="#000000" stroke="#000000" points="948.3201,-344.9185 937.7359,-345.3936 946.3062,-351.6226 948.3201,-344.9185"/>
<text text-anchor="middle" x="1656.4366" y="-394.5403" font-family="Times,serif" font-size="14.00" fill="#000000">Connected [no session id]</text>
</g>
<!-- Decision2&#45;&gt;Connecting -->
<g id="edge23" class="edge">
<title>Decision2-&gt;Connecting</title>
<path fill="none" stroke="#000000" d="M2349.1037,-345.3403C2298.0189,-345.3403 2224.8089,-345.3403 2160.7345,-345.3403 1473.1767,-345.3403 1473.1767,-345.3403 1473.1767,-345.3403 1404.7659,-345.3403 1330.4434,-323.1895 1275.3728,-302.1993"/>
<polygon fill="#000000" stroke="#000000" points="1276.6023,-298.9222 1266.0132,-298.5725 1274.073,-305.4493 1276.6023,-298.9222"/>
<text text-anchor="middle" x="1839.6965" y="-349.5403" font-family="Times,serif" font-size="14.00" fill="#000000">Connected [has session id]</text>
</g>
<!-- init -->
<g id="node11" class="node">
<title>init</title>
<ellipse fill="#000000" stroke="#000000" cx="1.8" cy="-182.3403" rx="1.8" ry="1.8"/>
</g>
<!-- init&#45;&gt;Idle -->
<g id="edge27" class="edge">
<title>init-&gt;Idle</title>
<path fill="none" stroke="#000000" d="M3.6983,-182.3403C7.9356,-182.3403 18.702,-182.3403 30.2151,-182.3403"/>
<polygon fill="#000000" stroke="#000000" points="30.3795,-185.8404 40.3795,-182.3403 30.3794,-178.8404 30.3795,-185.8404"/>
</g>
</g>
</svg>