<?xml version="1.0" encoding="UTF-8" standalone="no"?><!DOCTYPE svg PUBLIC "-//W3C//DTD SVG 1.1//EN" "http://www.w3.org/Graphics/SVG/1.1/DTD/svg11.dtd"><!-- Generated by graphviz version 2.40.1 (20161225.0304)
 --><!-- Title: %0 Pages: 1 --><svg xmlns="http://www.w3.org/2000/svg" xmlns:xlink="http://www.w3.org/1999/xlink" width="3741pt" height="983pt" viewBox="0.00 0.00 3740.84 982.80">
<g id="graph0" class="graph" transform="scale(1 1) rotate(0) translate(4 978.8)">
<title>%0</title>
<polygon fill="#ffffff" stroke="transparent" points="-4,4 -4,-978.8 3736.8373,-978.8 3736.8373,4 -4,4"/>
<!-- Idle -->
<g id="node1" class="node">
<title>Idle</title>
<path fill="none" stroke="#000000" d="M52.6,-705.2C52.6,-705.2 134.0348,-705.2 134.0348,-705.2 140.0348,-705.2 146.0348,-711.2 146.0348,-717.2 146.0348,-717.2 146.0348,-742.8 146.0348,-742.8 146.0348,-748.8 140.0348,-754.8 134.0348,-754.8 134.0348,-754.8 52.6,-754.8 52.6,-754.8 46.6,-754.8 40.6,-748.8 40.6,-742.8 40.6,-742.8 40.6,-717.2 40.6,-717.2 40.6,-711.2 46.6,-705.2 52.6,-705.2"/>
<text text-anchor="middle" x="93.3174" y="-738.2" font-family="Times,serif" font-size="14.00" fill="#000000">Idle</text>
<polyline fill="none" stroke="#000000" points="40.6,-730 146.0348,-730 "/>
<text text-anchor="middle" x="93.3174" y="-713.4" font-family="Times,serif" font-size="14.00" fill="#000000">entry / Function</text>
</g>
<!-- VersionCheck -->
<g id="node2" class="node">
<title>VersionCheck</title>
<path fill="none" stroke="#000000" d="M277.227,-756.8C277.227,-756.8 438.725,-756.8 438.725,-756.8 444.725,-756.8 450.725,-762.8 450.725,-768.8 450.725,-768.8 450.725,-811.2 450.725,-811.2 450.725,-817.2 444.725,-823.2 438.725,-823.2 438.725,-823.2 277.227,-823.2 277.227,-823.2 271.227,-823.2 265.227,-817.2 265.227,-811.2 265.227,-811.2 265.227,-768.8 265.227,-768.8 265.227,-762.8 271.227,-756.8 277.227,-756.8"/>
<text text-anchor="middle" x="357.976" y="-806.6" font-family="Times,serif" font-size="14.00" fill="#000000">VersionCheck</text>
<polyline fill="none" stroke="#000000" points="265.227,-798.4 450.725,-798.4 "/>
<text text-anchor="middle" x="357.976" y="-781.8" font-family="Times,serif" font-size="14.00" fill="#000000">entry / CheckVersion</text>
<text text-anchor="middle" x="357.976" y="-765" font-family="Times,serif" font-size="14.00" fill="#000000">exit / CancelCurrentOperation</text>
</g>
<!-- Idle&#45;&gt;VersionCheck -->
<g id="edge1" class="edge">
<title>Idle-&gt;VersionCheck</title>
<path fill="none" stroke="#000000" d="M100.1828,-754.9802C109.462,-783.3183 129.0201,-828.1631 164.0348,-848 207.763,-872.7733 263.1569,-851.7696 303.5375,-828.4021"/>
<polygon fill="#000000" stroke="#000000" points="305.3875,-831.3739 312.1732,-823.2373 301.7945,-825.3663 305.3875,-831.3739"/>
<text text-anchor="middle" x="205.6309" y="-863.2" font-family="Times,serif" font-size="14.00" fill="#000000">SetPush</text>
</g>
<!-- Idle&#45;&gt;VersionCheck -->
<g id="edge2" class="edge">
<title>Idle-&gt;VersionCheck</title>
<path fill="none" stroke="#000000" d="M107.7528,-754.8386C120.0663,-773.3378 139.6366,-797.1873 164.0348,-808 192.0879,-820.4324 224.6208,-821.7896 254.9331,-818.3611"/>
<polygon fill="#000000" stroke="#000000" points="255.6588,-821.7959 265.1181,-817.024 254.7476,-814.8555 255.6588,-821.7959"/>
<text text-anchor="middle" x="205.6309" y="-824.2" font-family="Times,serif" font-size="14.00" fill="#000000">SetPoll</text>
</g>
<!-- VersionCheck&#45;&gt;Idle -->
<g id="edge3" class="edge">
<title>VersionCheck-&gt;Idle</title>
<path fill="none" stroke="#000000" d="M264.7428,-786.621C232.3123,-783.5687 196.0538,-778.0106 164.0348,-768 156.9013,-765.7697 149.6533,-762.8065 142.6519,-759.5151"/>
<polygon fill="#000000" stroke="#000000" points="143.8038,-756.1791 133.2912,-754.8615 140.6876,-762.4473 143.8038,-756.1791"/>
<text text-anchor="middle" x="205.6309" y="-789.2" font-family="Times,serif" font-size="14.00" fill="#000000">SetIdle</text>
</g>
<!-- VersionCheck&#45;&gt;Idle -->
<g id="edge4" class="edge">
<title>VersionCheck-&gt;Idle</title>
<path fill="none" stroke="#000000" d="M279.2168,-756.739C268.5966,-753.0903 257.7386,-749.7728 247.227,-747.2 217.8038,-739.9985 184.4689,-735.8044 156.3641,-733.3653"/>
<polygon fill="#000000" stroke="#000000" points="156.5141,-729.866 146.2633,-732.5438 155.9466,-736.843 156.5141,-729.866"/>
<text text-anchor="middle" x="205.6309" y="-752.2" font-family="Times,serif" font-size="14.00" fill="#000000">WrongVersion</text>
</g>
<!-- VersionCheck&#45;&gt;Idle -->
<g id="edge5" class="edge">
<title>VersionCheck-&gt;Idle</title>
<path fill="none" stroke="#000000" d="M321.5272,-756.7404C301.2404,-740.5012 274.6045,-722.6719 247.227,-714.2 218.2027,-705.2186 184.7805,-707.2582 156.5127,-712.3332"/>
<polygon fill="#000000" stroke="#000000" points="155.4891,-708.9671 146.3491,-714.3255 156.8357,-715.8364 155.4891,-708.9671"/>
<text text-anchor="middle" x="205.6309" y="-719.2" font-family="Times,serif" font-size="14.00" fill="#000000">SendingError</text>
</g>
<!-- Decision1 -->
<g id="node11" class="node">
<title>Decision1</title>
<polygon fill="none" stroke="#000000" points="638.463,-808 548.3338,-790 638.463,-772 728.5922,-790 638.463,-808"/>
<text text-anchor="middle" x="638.463" y="-785.8" font-family="Times,serif" font-size="14.00" fill="#000000">check session</text>
</g>
<!-- VersionCheck&#45;&gt;Decision1 -->
<g id="edge6" class="edge">
<title>VersionCheck-&gt;Decision1</title>
<path fill="none" stroke="#000000" d="M450.9845,-790C478.8215,-790 509.4697,-790 537.7763,-790"/>
<polygon fill="#000000" stroke="#000000" points="538.0897,-793.5001 548.0896,-790 538.0896,-786.5001 538.0897,-793.5001"/>
<text text-anchor="middle" x="499.4368" y="-794.2" font-family="Times,serif" font-size="14.00" fill="#000000">VersionOk</text>
</g>
<!-- WaitForSessionId -->
<g id="node3" class="node">
<title>WaitForSessionId</title>
<path fill="none" stroke="#000000" d="M940.423,-825C940.423,-825 1033.5142,-825 1033.5142,-825 1039.5142,-825 1045.5142,-831 1045.5142,-837 1045.5142,-837 1045.5142,-849 1045.5142,-849 1045.5142,-855 1039.5142,-861 1033.5142,-861 1033.5142,-861 940.423,-861 940.423,-861 934.423,-861 928.423,-855 928.423,-849 928.423,-849 928.423,-837 928.423,-837 928.423,-831 934.423,-825 940.423,-825"/>
<text text-anchor="middle" x="986.9686" y="-838.9" font-family="Times,serif" font-size="14.00" fill="#000000">WaitForSessionId</text>
</g>
<!-- WaitForSessionId&#45;&gt;Idle -->
<g id="edge10" class="edge">
<title>WaitForSessionId-&gt;Idle</title>
<path fill="none" stroke="#000000" d="M943.2478,-861.0077C812.6774,-911.6769 418.8788,-1041.5994 164.0348,-880 124.4224,-854.8813 106.5878,-800.9832 98.8554,-765.1091"/>
<polygon fill="#000000" stroke="#000000" points="102.2389,-764.1791 96.8496,-755.0574 95.3742,-765.549 102.2389,-764.1791"/>
<text text-anchor="middle" x="499.4368" y="-962.2" font-family="Times,serif" font-size="14.00" fill="#000000">SetIdle</text>
</g>
<!-- Connecting -->
<g id="node4" class="node">
<title>Connecting</title>
<path fill="none" stroke="#000000" d="M1214.7888,-712.8C1214.7888,-712.8 1376.2868,-712.8 1376.2868,-712.8 1382.2868,-712.8 1388.2868,-718.8 1388.2868,-724.8 1388.2868,-724.8 1388.2868,-767.2 1388.2868,-767.2 1388.2868,-773.2 1382.2868,-779.2 1376.2868,-779.2 1376.2868,-779.2 1214.7888,-779.2 1214.7888,-779.2 1208.7888,-779.2 1202.7888,-773.2 1202.7888,-767.2 1202.7888,-767.2 1202.7888,-724.8 1202.7888,-724.8 1202.7888,-718.8 1208.7888,-712.8 1214.7888,-712.8"/>
<text text-anchor="middle" x="1295.5378" y="-762.6" font-family="Times,serif" font-size="14.00" fill="#000000">Connecting</text>
<polyline fill="none" stroke="#000000" points="1202.7888,-754.4 1388.2868,-754.4 "/>
<text text-anchor="middle" x="1295.5378" y="-737.8" font-family="Times,serif" font-size="14.00" fill="#000000">entry / Connect</text>
<text text-anchor="middle" x="1295.5378" y="-721" font-family="Times,serif" font-size="14.00" fill="#000000">exit / CancelCurrentOperation</text>
</g>
<!-- WaitForSessionId&#45;&gt;Connecting -->
<g id="edge9" class="edge">
<title>WaitForSessionId-&gt;Connecting</title>
<path fill="none" stroke="#000000" d="M1045.6778,-829.3155C1099.0859,-816.7747 1171.5495,-799.4949 1184.7888,-795 1195.0015,-791.5327 1205.5681,-787.4875 1215.9368,-783.2353"/>
<polygon fill="#000000" stroke="#000000" points="1217.5124,-786.3701 1225.3875,-779.2826 1214.8114,-779.9122 1217.5124,-786.3701"/>
<text text-anchor="middle" x="1132.6871" y="-825.2" font-family="Times,serif" font-size="14.00" fill="#000000">SessionIdChanged</text>
</g>
<!-- Connecting&#45;&gt;Idle -->
<g id="edge13" class="edge">
<title>Connecting-&gt;Idle</title>
<path fill="none" stroke="#000000" d="M1202.6689,-741.0292C1019.8342,-731.52 600.2887,-711.0698 247.227,-704 210.2601,-703.2598 200.4369,-697.5202 164.0348,-704 161.3505,-704.4778 158.6344,-705.0502 155.9097,-705.6986"/>
<polygon fill="#000000" stroke="#000000" points="154.7974,-702.3731 146.0464,-708.3455 156.6118,-709.1339 154.7974,-702.3731"/>
<text text-anchor="middle" x="638.463" y="-723.2" font-family="Times,serif" font-size="14.00" fill="#000000">ConnectionFailed</text>
</g>
<!-- RegisterInSession -->
<g id="node5" class="node">
<title>RegisterInSession</title>
<path fill="none" stroke="#000000" d="M1496.1578,-321.2C1496.1578,-321.2 1621.9096,-321.2 1621.9096,-321.2 1627.9096,-321.2 1633.9096,-327.2 1633.9096,-333.2 1633.9096,-333.2 1633.9096,-358.8 1633.9096,-358.8 1633.9096,-364.8 1627.9096,-370.8 1621.9096,-370.8 1621.9096,-370.8 1496.1578,-370.8 1496.1578,-370.8 1490.1578,-370.8 1484.1578,-364.8 1484.1578,-358.8 1484.1578,-358.8 1484.1578,-333.2 1484.1578,-333.2 1484.1578,-327.2 1490.1578,-321.2 1496.1578,-321.2"/>
<text text-anchor="middle" x="1559.0337" y="-354.2" font-family="Times,serif" font-size="14.00" fill="#000000">RegisterInSession</text>
<polyline fill="none" stroke="#000000" points="1484.1578,-346 1633.9096,-346 "/>
<text text-anchor="middle" x="1559.0337" y="-329.4" font-family="Times,serif" font-size="14.00" fill="#000000">entry / SendSessionInfo</text>
</g>
<!-- Connecting&#45;&gt;RegisterInSession -->
<g id="edge11" class="edge">
<title>Connecting-&gt;RegisterInSession</title>
<path fill="none" stroke="#000000" d="M1317.5501,-712.5842C1367.1135,-637.3445 1487.0107,-455.3345 1536.7911,-379.7653"/>
<polygon fill="#000000" stroke="#000000" points="1539.9266,-381.3679 1542.5049,-371.0916 1534.0809,-377.5171 1539.9266,-381.3679"/>
<text text-anchor="middle" x="1436.2223" y="-574.2" font-family="Times,serif" font-size="14.00" fill="#000000">Connected</text>
</g>
<!-- Disconnecting -->
<g id="node10" class="node">
<title>Disconnecting</title>
<path fill="none" stroke="#000000" d="M3254.7635,-575.8C3254.7635,-575.8 3416.2615,-575.8 3416.2615,-575.8 3422.2615,-575.8 3428.2615,-581.8 3428.2615,-587.8 3428.2615,-587.8 3428.2615,-630.2 3428.2615,-630.2 3428.2615,-636.2 3422.2615,-642.2 3416.2615,-642.2 3416.2615,-642.2 3254.7635,-642.2 3254.7635,-642.2 3248.7635,-642.2 3242.7635,-636.2 3242.7635,-630.2 3242.7635,-630.2 3242.7635,-587.8 3242.7635,-587.8 3242.7635,-581.8 3248.7635,-575.8 3254.7635,-575.8"/>
<text text-anchor="middle" x="3335.5125" y="-625.6" font-family="Times,serif" font-size="14.00" fill="#000000">Disconnecting</text>
<polyline fill="none" stroke="#000000" points="3242.7635,-617.4 3428.2615,-617.4 "/>
<text text-anchor="middle" x="3335.5125" y="-600.8" font-family="Times,serif" font-size="14.00" fill="#000000">entry / Disconnect</text>
<text text-anchor="middle" x="3335.5125" y="-584" font-family="Times,serif" font-size="14.00" fill="#000000">exit / CancelCurrentOperation</text>
</g>
<!-- Connecting&#45;&gt;Disconnecting -->
<g id="edge12" class="edge">
<title>Connecting-&gt;Disconnecting</title>
<path fill="none" stroke="#000000" d="M1388.5209,-746C1438.9715,-746 1502.4233,-746 1559.0337,-746 1559.0337,-746 1559.0337,-746 3037.7859,-746 3122.6755,-746 3148.8879,-745.0677 3224.7635,-707 3252.7635,-692.952 3279.2314,-670.0326 3299.2669,-649.8897"/>
<polygon fill="#000000" stroke="#000000" points="3301.8805,-652.2225 3306.3484,-642.6158 3296.8648,-647.3396 3301.8805,-652.2225"/>
<text text-anchor="middle" x="2200.1375" y="-750.2" font-family="Times,serif" font-size="14.00" fill="#000000">SetIdle</text>
</g>
<!-- RegisterInSession&#45;&gt;RegisterInSession -->
<g id="edge14" class="edge">
<title>RegisterInSession-&gt;RegisterInSession</title>
<path fill="none" stroke="#000000" d="M1551.4552,-370.9178C1551.0271,-380.9117 1553.5532,-389.3 1559.0337,-389.3 1562.459,-389.3 1564.7303,-386.0233 1565.8475,-381.1259"/>
<polygon fill="#000000" stroke="#000000" points="1569.3553,-381.1513 1566.6122,-370.9178 1562.3749,-380.6284 1569.3553,-381.1513"/>
<text text-anchor="middle" x="1559.0337" y="-393.5" font-family="Times,serif" font-size="14.00" fill="#000000">SessionIdChanged / SendSessionInfo</text>
</g>
<!-- RegisterInSession&#45;&gt;RegisterInSession -->
<g id="edge15" class="edge">
<title>RegisterInSession-&gt;RegisterInSession</title>
<path fill="none" stroke="#000000" d="M1545.5047,-370.8677C1540.942,-389.066 1545.4517,-407.3 1559.0337,-407.3 1570.0691,-407.3 1575.1153,-395.2627 1574.1724,-380.9876"/>
<polygon fill="#000000" stroke="#000000" points="1577.5902,-380.1937 1572.5627,-370.8677 1570.6771,-381.2933 1577.5902,-380.1937"/>
<text text-anchor="middle" x="1559.0337" y="-411.5" font-family="Times,serif" font-size="14.00" fill="#000000">SetPush / SendSessionInfo</text>
</g>
<!-- RegisterInSession&#45;&gt;RegisterInSession -->
<g id="edge16" class="edge">
<title>RegisterInSession-&gt;RegisterInSession</title>
<path fill="none" stroke="#000000" d="M1541.185,-371.173C1530.6857,-396.7887 1536.6353,-425.3 1559.0337,-425.3 1578.6323,-425.3 1585.6373,-403.471 1580.0486,-380.8533"/>
<polygon fill="#000000" stroke="#000000" points="1583.3178,-379.5895 1576.8825,-371.173 1576.6646,-381.7656 1583.3178,-379.5895"/>
<text text-anchor="middle" x="1559.0337" y="-429.5" font-family="Times,serif" font-size="14.00" fill="#000000">SetPoll / SendSessionInfo</text>
</g>
<!-- WaitingForPlayers -->
<g id="node6" class="node">
<title>WaitingForPlayers</title>
<path fill="none" stroke="#000000" d="M1786.113,-352.8C1786.113,-352.8 1947.611,-352.8 1947.611,-352.8 1953.611,-352.8 1959.611,-358.8 1959.611,-364.8 1959.611,-364.8 1959.611,-407.2 1959.611,-407.2 1959.611,-413.2 1953.611,-419.2 1947.611,-419.2 1947.611,-419.2 1786.113,-419.2 1786.113,-419.2 1780.113,-419.2 1774.113,-413.2 1774.113,-407.2 1774.113,-407.2 1774.113,-364.8 1774.113,-364.8 1774.113,-358.8 1780.113,-352.8 1786.113,-352.8"/>
<text text-anchor="middle" x="1866.862" y="-402.6" font-family="Times,serif" font-size="14.00" fill="#000000">WaitingForPlayers</text>
<polyline fill="none" stroke="#000000" points="1774.113,-394.4 1959.611,-394.4 "/>
<text text-anchor="middle" x="1866.862" y="-377.8" font-family="Times,serif" font-size="14.00" fill="#000000">entry / WaitForPlayers</text>
<text text-anchor="middle" x="1866.862" y="-361" font-family="Times,serif" font-size="14.00" fill="#000000">exit / CancelCurrentOperation</text>
</g>
<!-- RegisterInSession&#45;&gt;WaitingForPlayers -->
<g id="edge17" class="edge">
<title>RegisterInSession-&gt;WaitingForPlayers</title>
<path fill="none" stroke="#000000" d="M1633.9478,-340.6769C1670.9695,-339.5083 1716.1623,-340.2791 1756.113,-347.2 1760.8806,-348.0259 1765.7168,-349.0325 1770.5678,-350.1792"/>
<polygon fill="#000000" stroke="#000000" points="1769.9742,-353.6397 1780.5288,-352.7166 1771.7023,-346.8564 1769.9742,-353.6397"/>
<text text-anchor="middle" x="1704.0113" y="-352.2" font-family="Times,serif" font-size="14.00" fill="#000000">AloneInSession</text>
</g>
<!-- Reconnecting -->
<g id="node9" class="node">
<title>Reconnecting</title>
<path fill="none" stroke="#000000" d="M3254.7635,-212.8C3254.7635,-212.8 3416.2615,-212.8 3416.2615,-212.8 3422.2615,-212.8 3428.2615,-218.8 3428.2615,-224.8 3428.2615,-224.8 3428.2615,-267.2 3428.2615,-267.2 3428.2615,-273.2 3422.2615,-279.2 3416.2615,-279.2 3416.2615,-279.2 3254.7635,-279.2 3254.7635,-279.2 3248.7635,-279.2 3242.7635,-273.2 3242.7635,-267.2 3242.7635,-267.2 3242.7635,-224.8 3242.7635,-224.8 3242.7635,-218.8 3248.7635,-212.8 3254.7635,-212.8"/>
<text text-anchor="middle" x="3335.5125" y="-262.6" font-family="Times,serif" font-size="14.00" fill="#000000">Reconnecting</text>
<polyline fill="none" stroke="#000000" points="3242.7635,-254.4 3428.2615,-254.4 "/>
<text text-anchor="middle" x="3335.5125" y="-237.8" font-family="Times,serif" font-size="14.00" fill="#000000">entry / Connect</text>
<text text-anchor="middle" x="3335.5125" y="-221" font-family="Times,serif" font-size="14.00" fill="#000000">exit / CancelCurrentOperation</text>
</g>
<!-- RegisterInSession&#45;&gt;Reconnecting -->
<g id="edge18" class="edge">
<title>RegisterInSession-&gt;Reconnecting</title>
<path fill="none" stroke="#000000" d="M1577.0111,-321.1287C1594.0283,-299.2523 1621.4511,-268.012 1651.9096,-249 1700.2728,-218.8121 1718.2756,-221.5104 1774.113,-210 2258.8848,-110.0684 2395.1699,-121.4874 2887.2333,-175 3006.3409,-187.9531 3142.1017,-210.5661 3232.7157,-226.7946"/>
<polygon fill="#000000" stroke="#000000" points="3232.2512,-230.2671 3242.7128,-228.5919 3233.4899,-223.3776 3232.2512,-230.2671"/>
<text text-anchor="middle" x="2450.9056" y="-149.2" font-family="Times,serif" font-size="14.00" fill="#000000">SendingError</text>
</g>
<!-- RegisterInSession&#45;&gt;Disconnecting -->
<g id="edge19" class="edge">
<title>RegisterInSession-&gt;Disconnecting</title>
<path fill="none" stroke="#000000" d="M1572.5574,-371.2175C1609.896,-437.0443 1721.3585,-609 1866.862,-609 1866.862,-609 1866.862,-609 3037.7859,-609 3102.5161,-609 3175.1625,-609 3232.4902,-609"/>
<polygon fill="#000000" stroke="#000000" points="3232.6456,-612.5001 3242.6456,-609 3232.6456,-605.5001 3232.6456,-612.5001"/>
<text text-anchor="middle" x="2450.9056" y="-613.2" font-family="Times,serif" font-size="14.00" fill="#000000">SetIdle</text>
</g>
<!-- Decision2 -->
<g id="node12" class="node">
<title>Decision2</title>
<polygon fill="none" stroke="#000000" points="2200.1375,-295 2105.3775,-277 2200.1375,-259 2294.8976,-277 2200.1375,-295"/>
<text text-anchor="middle" x="2200.1375" y="-272.8" font-family="Times,serif" font-size="14.00" fill="#000000">working mode</text>
</g>
<!-- RegisterInSession&#45;&gt;Decision2 -->
<g id="edge20" class="edge">
<title>RegisterInSession-&gt;Decision2</title>
<path fill="none" stroke="#000000" d="M1615.1495,-321.0572C1627.0764,-316.6654 1639.745,-312.6558 1651.9096,-310 1810.4497,-275.3867 2000.4863,-272.2104 2110.0753,-273.9703"/>
<polygon fill="#000000" stroke="#000000" points="2110.0396,-277.4701 2120.1003,-274.1487 2110.1642,-270.4712 2110.0396,-277.4701"/>
<text text-anchor="middle" x="1866.862" y="-294.2" font-family="Times,serif" font-size="14.00" fill="#000000">NotAloneInSession</text>
</g>
<!-- WaitingForPlayers&#45;&gt;RegisterInSession -->
<g id="edge25" class="edge">
<title>WaitingForPlayers-&gt;RegisterInSession</title>
<path fill="none" stroke="#000000" d="M1823.2964,-352.738C1803.8358,-339.8996 1779.9436,-326.7453 1756.113,-320.2 1720.0735,-310.3015 1679.2526,-313.3968 1644.1471,-320.2629"/>
<polygon fill="#000000" stroke="#000000" points="1643.0012,-316.9267 1633.9282,-322.3976 1644.4326,-323.7787 1643.0012,-316.9267"/>
<text text-anchor="middle" x="1704.0113" y="-325.2" font-family="Times,serif" font-size="14.00" fill="#000000">SessionIdChanged</text>
</g>
<!-- WaitingForPlayers&#45;&gt;RegisterInSession -->
<g id="edge27" class="edge">
<title>WaitingForPlayers-&gt;RegisterInSession</title>
<path fill="none" stroke="#000000" d="M1773.9159,-408.1894C1735.5314,-413.6664 1690.969,-415.1943 1651.9096,-404 1632.6358,-398.4762 1613.4789,-387.6593 1597.6141,-376.8483"/>
<polygon fill="#000000" stroke="#000000" points="1599.3464,-373.7868 1589.1591,-370.8764 1595.3079,-379.5045 1599.3464,-373.7868"/>
<text text-anchor="middle" x="1704.0113" y="-417.2" font-family="Times,serif" font-size="14.00" fill="#000000">SetPoll</text>
</g>
<!-- WaitingForPlayers&#45;&gt;RegisterInSession -->
<g id="edge28" class="edge">
<title>WaitingForPlayers-&gt;RegisterInSession</title>
<path fill="none" stroke="#000000" d="M1774.0583,-378.3311C1736.0956,-374.7188 1691.8029,-369.8952 1651.9096,-364 1649.2592,-363.6083 1646.5694,-363.1935 1643.8561,-362.76"/>
<polygon fill="#000000" stroke="#000000" points="1644.3949,-359.3016 1633.9568,-361.1172 1643.2488,-366.2072 1644.3949,-359.3016"/>
<text text-anchor="middle" x="1704.0113" y="-381.2" font-family="Times,serif" font-size="14.00" fill="#000000">SetPush</text>
</g>
<!-- WaitingForPlayers&#45;&gt;Reconnecting -->
<g id="edge24" class="edge">
<title>WaitingForPlayers-&gt;Reconnecting</title>
<path fill="none" stroke="#000000" d="M1909.5321,-352.5631C1955.0479,-319.1797 2030.7129,-270.0419 2105.2576,-250 2316.3063,-193.2579 2976.0806,-224.6767 3232.3151,-239.567"/>
<polygon fill="#000000" stroke="#000000" points="3232.1794,-243.0649 3242.3667,-240.1547 3232.5881,-236.0769 3232.1794,-243.0649"/>
<text text-anchor="middle" x="2747.0135" y="-228.2" font-family="Times,serif" font-size="14.00" fill="#000000">ConnectionFailed</text>
</g>
<!-- WaitingForPlayers&#45;&gt;Disconnecting -->
<g id="edge23" class="edge">
<title>WaitingForPlayers-&gt;Disconnecting</title>
<path fill="none" stroke="#000000" d="M1952.9116,-419.2406C1961.2065,-422.0259 1969.5358,-424.6648 1977.611,-427 2033.3156,-443.1089 2047.9184,-445.356 2105.2576,-454 2450.3408,-506.0219 2539.6917,-493.5211 2887.2333,-525.2 3037.248,-538.874 3079.5311,-516.013 3224.7635,-556 3238.7059,-559.8388 3253.0367,-565.3652 3266.5707,-571.4152"/>
<polygon fill="#000000" stroke="#000000" points="3265.2521,-574.6614 3275.7986,-575.673 3268.1849,-568.3054 3265.2521,-574.6614"/>
<text text-anchor="middle" x="2747.0135" y="-530.2" font-family="Times,serif" font-size="14.00" fill="#000000">SetIdle</text>
</g>
<!-- WaitingForPlayers&#45;&gt;Disconnecting -->
<g id="edge26" class="edge">
<title>WaitingForPlayers-&gt;Disconnecting</title>
<path fill="none" stroke="#000000" d="M1912.9529,-419.2019C1932.161,-431.7085 1955.1874,-445.0554 1977.611,-454 2031.4712,-475.4843 2048.0722,-471.3912 2105.2576,-481 2598.4747,-563.8744 2727.4209,-542.2593 3224.7635,-595 3227.2929,-595.2682 3229.8542,-595.5458 3232.4372,-595.8309"/>
<polygon fill="#000000" stroke="#000000" points="3232.1582,-599.3216 3242.4877,-596.9652 3232.9433,-592.3657 3232.1582,-599.3216"/>
<text text-anchor="middle" x="2747.0135" y="-569.2" font-family="Times,serif" font-size="14.00" fill="#000000">PlayerWaitingTimeout</text>
</g>
<!-- Decision3 -->
<g id="node13" class="node">
<title>Decision3</title>
<polygon fill="none" stroke="#000000" points="2200.1375,-404 2105.3775,-386 2200.1375,-368 2294.8976,-386 2200.1375,-404"/>
<text text-anchor="middle" x="2200.1375" y="-381.8" font-family="Times,serif" font-size="14.00" fill="#000000">working mode</text>
</g>
<!-- WaitingForPlayers&#45;&gt;Decision3 -->
<g id="edge29" class="edge">
<title>WaitingForPlayers-&gt;Decision3</title>
<path fill="none" stroke="#000000" d="M1959.6978,-386C2001.7783,-386 2051.7275,-386 2095.1674,-386"/>
<polygon fill="#000000" stroke="#000000" points="2095.1934,-389.5001 2105.1933,-386 2095.1933,-382.5001 2095.1934,-389.5001"/>
<text text-anchor="middle" x="2032.4343" y="-390.2" font-family="Times,serif" font-size="14.00" fill="#000000">NotAloneInSession</text>
</g>
<!-- Polling -->
<g id="node7" class="node">
<title>Polling</title>
<path fill="none" stroke="#000000" d="M2666.2645,-407.8C2666.2645,-407.8 2827.7625,-407.8 2827.7625,-407.8 2833.7625,-407.8 2839.7625,-413.8 2839.7625,-419.8 2839.7625,-419.8 2839.7625,-462.2 2839.7625,-462.2 2839.7625,-468.2 2833.7625,-474.2 2827.7625,-474.2 2827.7625,-474.2 2666.2645,-474.2 2666.2645,-474.2 2660.2645,-474.2 2654.2645,-468.2 2654.2645,-462.2 2654.2645,-462.2 2654.2645,-419.8 2654.2645,-419.8 2654.2645,-413.8 2660.2645,-407.8 2666.2645,-407.8"/>
<text text-anchor="middle" x="2747.0135" y="-457.6" font-family="Times,serif" font-size="14.00" fill="#000000">Polling</text>
<polyline fill="none" stroke="#000000" points="2654.2645,-449.4 2839.7625,-449.4 "/>
<text text-anchor="middle" x="2747.0135" y="-432.8" font-family="Times,serif" font-size="14.00" fill="#000000">exit / CancelCurrentOperation</text>
<text text-anchor="middle" x="2747.0135" y="-416" font-family="Times,serif" font-size="14.00" fill="#000000">exit / ClearCache</text>
</g>
<!-- Polling&#45;&gt;RegisterInSession -->
<g id="edge34" class="edge">
<title>Polling-&gt;RegisterInSession</title>
<path fill="none" stroke="#000000" d="M2654.064,-472.0372C2509.1526,-516.3207 2220.7675,-587.9826 1977.611,-547 1826.5212,-521.5347 1782.8376,-513.5894 1651.9096,-434 1627.4955,-419.159 1604.1684,-397.0161 1586.9993,-378.6554"/>
<polygon fill="#000000" stroke="#000000" points="1589.3685,-376.0602 1580.0329,-371.0504 1584.2068,-380.7885 1589.3685,-376.0602"/>
<text text-anchor="middle" x="2032.4343" y="-562.2" font-family="Times,serif" font-size="14.00" fill="#000000">SessionIdChanged</text>
</g>
<!-- Polling&#45;&gt;WaitingForPlayers -->
<g id="edge37" class="edge">
<title>Polling-&gt;WaitingForPlayers</title>
<path fill="none" stroke="#000000" d="M2654.2387,-441.6341C2509.2609,-441.5609 2220.4322,-437.1359 1977.611,-407 1975.062,-406.6837 1972.4833,-406.3445 1969.8846,-405.9858"/>
<polygon fill="#000000" stroke="#000000" points="1970.1831,-402.4924 1959.7825,-404.5118 1969.1724,-409.4191 1970.1831,-402.4924"/>
<text text-anchor="middle" x="2200.1375" y="-437.2" font-family="Times,serif" font-size="14.00" fill="#000000">AloneInSession</text>
</g>
<!-- Pushing -->
<g id="node8" class="node">
<title>Pushing</title>
<path fill="none" stroke="#000000" d="M2980.3483,-272.8C2980.3483,-272.8 3095.2235,-272.8 3095.2235,-272.8 3101.2235,-272.8 3107.2235,-278.8 3107.2235,-284.8 3107.2235,-284.8 3107.2235,-327.2 3107.2235,-327.2 3107.2235,-333.2 3101.2235,-339.2 3095.2235,-339.2 3095.2235,-339.2 2980.3483,-339.2 2980.3483,-339.2 2974.3483,-339.2 2968.3483,-333.2 2968.3483,-327.2 2968.3483,-327.2 2968.3483,-284.8 2968.3483,-284.8 2968.3483,-278.8 2974.3483,-272.8 2980.3483,-272.8"/>
<text text-anchor="middle" x="3037.7859" y="-322.6" font-family="Times,serif" font-size="14.00" fill="#000000">Pushing</text>
<polyline fill="none" stroke="#000000" points="2968.3483,-314.4 3107.2235,-314.4 "/>
<text text-anchor="middle" x="3037.7859" y="-297.8" font-family="Times,serif" font-size="14.00" fill="#000000">entry / StartPushLoop</text>
<text text-anchor="middle" x="3037.7859" y="-281" font-family="Times,serif" font-size="14.00" fill="#000000">exit / StopPushLoop</text>
</g>
<!-- Polling&#45;&gt;Pushing -->
<g id="edge32" class="edge">
<title>Polling-&gt;Pushing</title>
<path fill="none" stroke="#000000" d="M2839.7657,-419.0735C2856.6041,-412.4513 2873.2405,-403.9274 2887.2333,-393 2898.8343,-383.9404 2894.0526,-374.7735 2905.2333,-365.2 2910.2418,-360.9114 2933.3055,-350.2365 2958.8262,-339.1131"/>
<polygon fill="#000000" stroke="#000000" points="2960.5252,-342.1915 2968.3108,-335.0058 2957.7435,-335.768 2960.5252,-342.1915"/>
<text text-anchor="middle" x="2927.7908" y="-370.2" font-family="Times,serif" font-size="14.00" fill="#000000">SetPush</text>
</g>
<!-- Polling&#45;&gt;Reconnecting -->
<g id="edge35" class="edge">
<title>Polling-&gt;Reconnecting</title>
<path fill="none" stroke="#000000" d="M2839.822,-448.8953C2876.4823,-447.9427 2917.5845,-441.4736 2950.3483,-422 2962.6824,-414.669 2956.774,-403.6801 2968.3483,-395.2 3016.2487,-360.1049 3170.9668,-345.1401 3224.7635,-320 3245.0176,-310.5349 3265.769,-297.6647 3283.7533,-285.3114"/>
<polygon fill="#000000" stroke="#000000" points="3286.1543,-287.9034 3292.3454,-279.3057 3282.144,-282.166 3286.1543,-287.9034"/>
<text text-anchor="middle" x="3037.7859" y="-400.2" font-family="Times,serif" font-size="14.00" fill="#000000">SendingError</text>
</g>
<!-- Polling&#45;&gt;Reconnecting -->
<g id="edge36" class="edge">
<title>Polling-&gt;Reconnecting</title>
<path fill="none" stroke="#000000" d="M2839.7999,-447.2836C2960.2494,-453.6984 3162.4238,-457.9994 3224.7635,-420 3273.4505,-390.3226 3304.4182,-330.2446 3320.873,-289.067"/>
<polygon fill="#000000" stroke="#000000" points="3324.2096,-290.1426 3324.5523,-279.5533 3317.6809,-287.6177 3324.2096,-290.1426"/>
<text text-anchor="middle" x="3037.7859" y="-456.2" font-family="Times,serif" font-size="14.00" fill="#000000">ConnectionFailed</text>
</g>
<!-- Polling&#45;&gt;Disconnecting -->
<g id="edge33" class="edge">
<title>Polling-&gt;Disconnecting</title>
<path fill="none" stroke="#000000" d="M2840.1214,-460.8124C2861.4686,-465.0816 2884.1002,-469.3911 2905.2333,-473 3046.6016,-497.1412 3093.5161,-460.1905 3224.7635,-518 3251.6218,-529.8301 3277.2377,-550.0729 3297.0558,-568.4666"/>
<polygon fill="#000000" stroke="#000000" points="3294.6975,-571.0538 3304.358,-575.4043 3299.519,-565.979 3294.6975,-571.0538"/>
<text text-anchor="middle" x="3037.7859" y="-489.2" font-family="Times,serif" font-size="14.00" fill="#000000">SetIdle</text>
</g>
<!-- Pushing&#45;&gt;RegisterInSession -->
<g id="edge40" class="edge">
<title>Pushing-&gt;RegisterInSession</title>
<path fill="none" stroke="#000000" d="M3001.0528,-272.6983C2972.369,-249.0427 2930.2756,-219.2226 2887.2333,-206 2731.4685,-158.1489 2291.5599,-182.1257 2105.2576,-200.2 1900.9002,-220.026 1843.1879,-214.3835 1651.9096,-289 1634.6713,-295.7245 1617.0485,-305.6307 1601.851,-315.3059"/>
<polygon fill="#000000" stroke="#000000" points="1599.6652,-312.553 1593.2045,-320.95 1603.4915,-318.4147 1599.6652,-312.553"/>
<text text-anchor="middle" x="2200.1375" y="-205.2" font-family="Times,serif" font-size="14.00" fill="#000000">SessionIdChanged</text>
</g>
<!-- Pushing&#45;&gt;WaitingForPlayers -->
<g id="edge43" class="edge">
<title>Pushing-&gt;WaitingForPlayers</title>
<path fill="none" stroke="#000000" d="M2968.1064,-309.4522C2781.4339,-318.782 2272.8929,-344.7546 2105.2576,-359 2060.7832,-362.7794 2011.7707,-368.1256 1969.812,-373.0648"/>
<polygon fill="#000000" stroke="#000000" points="1969.3813,-369.5912 1959.8627,-374.2438 1970.2051,-376.5426 1969.3813,-369.5912"/>
<text text-anchor="middle" x="2450.9056" y="-349.2" font-family="Times,serif" font-size="14.00" fill="#000000">AloneInSession</text>
</g>
<!-- Pushing&#45;&gt;Polling -->
<g id="edge38" class="edge">
<title>Pushing-&gt;Polling</title>
<path fill="none" stroke="#000000" d="M2987.1716,-339.2848C2980.5412,-344.5362 2974.0718,-350.1694 2968.3483,-356 2958.5027,-366.0297 2961.7556,-373.7901 2950.3483,-382 2933.3263,-394.2508 2891.0786,-407.3028 2849.4759,-418.0077"/>
<polygon fill="#000000" stroke="#000000" points="2848.6119,-414.6159 2839.778,-420.465 2850.3313,-421.4014 2848.6119,-414.6159"/>
<text text-anchor="middle" x="2927.7908" y="-405.2" font-family="Times,serif" font-size="14.00" fill="#000000">SetPoll</text>
</g>
<!-- Pushing&#45;&gt;Reconnecting -->
<g id="edge41" class="edge">
<title>Pushing-&gt;Reconnecting</title>
<path fill="none" stroke="#000000" d="M3107.6165,-300.7532C3143.0065,-297.2521 3186.4829,-291.6573 3224.7635,-283 3227.4065,-282.4023 3230.0755,-281.7661 3232.7605,-281.0971"/>
<polygon fill="#000000" stroke="#000000" points="3233.7453,-284.4573 3242.5346,-278.5414 3231.9744,-277.685 3233.7453,-284.4573"/>
<text text-anchor="middle" x="3174.9935" y="-303.2" font-family="Times,serif" font-size="14.00" fill="#000000">SendingError</text>
</g>
<!-- Pushing&#45;&gt;Reconnecting -->
<g id="edge42" class="edge">
<title>Pushing-&gt;Reconnecting</title>
<path fill="none" stroke="#000000" d="M3096.7635,-272.6507C3106.0571,-268.5207 3115.7345,-264.8327 3125.2235,-262.2 3159.4247,-252.7111 3197.8747,-248.0853 3232.4526,-246.0004"/>
<polygon fill="#000000" stroke="#000000" points="3232.7744,-249.4882 3242.5715,-245.455 3232.3976,-242.4984 3232.7744,-249.4882"/>
<text text-anchor="middle" x="3174.9935" y="-267.2" font-family="Times,serif" font-size="14.00" fill="#000000">ConnectionFailed</text>
</g>
<!-- Pushing&#45;&gt;Disconnecting -->
<g id="edge39" class="edge">
<title>Pushing-&gt;Disconnecting</title>
<path fill="none" stroke="#000000" d="M3085.2342,-339.3758C3092.6691,-344.8316 3100.2096,-350.5001 3107.2235,-356 3161.242,-398.3585 3178.1721,-405.7869 3224.7635,-456.2 3256.8785,-490.9493 3288.0055,-535.1217 3309.0383,-567.0257"/>
<polygon fill="#000000" stroke="#000000" points="3306.2946,-569.2252 3314.6954,-575.6809 3312.154,-565.3954 3306.2946,-569.2252"/>
<text text-anchor="middle" x="3174.9935" y="-461.2" font-family="Times,serif" font-size="14.00" fill="#000000">SetIdle</text>
</g>
<!-- Reconnecting&#45;&gt;Idle -->
<g id="edge44" class="edge">
<title>Reconnecting-&gt;Idle</title>
<path fill="none" stroke="#000000" d="M3246.7798,-212.7521C3239.3467,-210.0882 3231.9349,-207.4734 3224.7635,-205 2893.4089,-90.7176 2801.4142,-53 2450.9056,-53 357.976,-53 357.976,-53 357.976,-53 218.687,-53 122.8258,-556.392 99.0668,-695.0253"/>
<polygon fill="#000000" stroke="#000000" points="95.5792,-694.6577 97.3572,-705.1023 102.4806,-695.8286 95.5792,-694.6577"/>
<text text-anchor="middle" x="1559.0337" y="-57.2" font-family="Times,serif" font-size="14.00" fill="#000000">SetIdle</text>
</g>
<!-- Reconnecting&#45;&gt;Idle -->
<g id="edge45" class="edge">
<title>Reconnecting-&gt;Idle</title>
<path fill="none" stroke="#000000" d="M3316.2497,-212.5673C3274.711,-145.3064 3169.707,0 3037.7859,0 357.976,0 357.976,0 357.976,0 245.3795,0 210.4623,-60.421 164.0348,-163 120.5402,-259.099 100.507,-586.8309 94.9714,-695.0246"/>
<polygon fill="#000000" stroke="#000000" points="91.4721,-694.9232 94.4662,-705.0861 98.4633,-695.2742 91.4721,-694.9232"/>
<text text-anchor="middle" x="1559.0337" y="-4.2" font-family="Times,serif" font-size="14.00" fill="#000000">ConnectionFailed</text>
</g>
<!-- Decision4 -->
<g id="node14" class="node">
<title>Decision4</title>
<polygon fill="none" stroke="#000000" points="3628.4849,-264 3524.2798,-246 3628.4849,-228 3732.6899,-246 3628.4849,-264"/>
<text text-anchor="middle" x="3628.4849" y="-241.8" font-family="Times,serif" font-size="14.00" fill="#000000">check session id</text>
</g>
<!-- Reconnecting&#45;&gt;Decision4 -->
<g id="edge46" class="edge">
<title>Reconnecting-&gt;Decision4</title>
<path fill="none" stroke="#000000" d="M3428.6133,-246C3455.6978,-246 3485.6031,-246 3513.8482,-246"/>
<polygon fill="#000000" stroke="#000000" points="3514.1709,-249.5001 3524.1709,-246 3514.1709,-242.5001 3514.1709,-249.5001"/>
<text text-anchor="middle" x="3476.197" y="-250.2" font-family="Times,serif" font-size="14.00" fill="#000000">Connected</text>
</g>
<!-- Disconnecting&#45;&gt;Idle -->
<g id="edge49" class="edge">
<title>Disconnecting-&gt;Idle</title>
<path fill="none" stroke="#000000" d="M3242.7015,-626.9985C3184.1587,-636.8203 3106.8289,-647 3037.7859,-647 357.976,-647 357.976,-647 357.976,-647 283.9304,-647 203.3514,-676.9452 150.8022,-700.8622"/>
<polygon fill="#000000" stroke="#000000" points="149.2538,-697.7221 141.6474,-705.0973 152.1928,-704.0752 149.2538,-697.7221"/>
<text text-anchor="middle" x="1559.0337" y="-651.2" font-family="Times,serif" font-size="14.00" fill="#000000">Disconnected</text>
</g>
<!-- Disconnecting&#45;&gt;Connecting -->
<g id="edge50" class="edge">
<title>Disconnecting-&gt;Connecting</title>
<path fill="none" stroke="#000000" d="M3272.2687,-642.2609C3257.0267,-649.2706 3240.5707,-656.0367 3224.7635,-661 3144.326,-686.2563 3122.0953,-693 3037.7859,-693 1559.0337,-693 1559.0337,-693 1559.0337,-693 1505.3386,-693 1446.6759,-703.7087 1398.3606,-715.499"/>
<polygon fill="#000000" stroke="#000000" points="1397.3848,-712.135 1388.5271,-717.9481 1399.0765,-718.9275 1397.3848,-712.135"/>
<text text-anchor="middle" x="2200.1375" y="-697.2" font-family="Times,serif" font-size="14.00" fill="#000000">SetPoll</text>
</g>
<!-- Disconnecting&#45;&gt;Connecting -->
<g id="edge51" class="edge">
<title>Disconnecting-&gt;Connecting</title>
<path fill="none" stroke="#000000" d="M3314.8732,-642.4081C3295.1182,-671.7777 3262.7583,-713.6783 3224.7635,-739 3152.1391,-787.4005 3125.0608,-799 3037.7859,-799 1559.0337,-799 1559.0337,-799 1559.0337,-799 1505.3386,-799 1446.6759,-788.2913 1398.3606,-776.501"/>
<polygon fill="#000000" stroke="#000000" points="1399.0765,-773.0725 1388.5271,-774.0519 1397.3848,-779.865 1399.0765,-773.0725"/>
<text text-anchor="middle" x="2200.1375" y="-803.2" font-family="Times,serif" font-size="14.00" fill="#000000">SetPush</text>
</g>
<!-- Decision1&#45;&gt;WaitForSessionId -->
<g id="edge7" class="edge">
<title>Decision1-&gt;WaitForSessionId</title>
<path fill="none" stroke="#000000" d="M689.8862,-797.8203C750.3985,-807.0229 851.1198,-822.3404 918.275,-832.5532"/>
<polygon fill="#000000" stroke="#000000" points="917.9293,-836.0408 928.3418,-834.0842 918.9818,-829.1204 917.9293,-836.0408"/>
<text text-anchor="middle" x="820.0646" y="-832.2" font-family="Times,serif" font-size="14.00" fill="#000000">VersionOk [no session id]</text>
</g>
<!-- Decision1&#45;&gt;Connecting -->
<g id="edge8" class="edge">
<title>Decision1-&gt;Connecting</title>
<path fill="none" stroke="#000000" d="M705.9999,-785.4775C821.2572,-777.7595 1056.6195,-761.9988 1192.51,-752.8991"/>
<polygon fill="#000000" stroke="#000000" points="1192.7779,-756.3891 1202.5217,-752.2287 1192.3101,-749.4047 1192.7779,-756.3891"/>
<text text-anchor="middle" x="986.9686" y="-776.2" font-family="Times,serif" font-size="14.00" fill="#000000">VersionOk [has session id]</text>
</g>
<!-- Decision2&#45;&gt;Polling -->
<g id="edge21" class="edge">
<title>Decision2-&gt;Polling</title>
<path fill="none" stroke="#000000" d="M2281.8463,-279.561C2392.4517,-283.3924 2577.434,-291.2432 2588.7937,-301.2 2620.0602,-328.6052 2579.463,-361.6684 2606.7937,-393 2617.061,-404.7704 2630.3433,-413.6576 2644.6333,-420.3672"/>
<polygon fill="#000000" stroke="#000000" points="2643.5793,-423.7242 2654.1478,-424.4704 2646.3513,-417.2965 2643.5793,-423.7242"/>
<text text-anchor="middle" x="2450.9056" y="-306.2" font-family="Times,serif" font-size="14.00" fill="#000000">NotAloneInSession [2+ members &amp; 'poll' mode]</text>
</g>
<!-- Decision2&#45;&gt;Pushing -->
<g id="edge22" class="edge">
<title>Decision2-&gt;Pushing</title>
<path fill="none" stroke="#000000" d="M2288.6626,-275.8107C2429.1672,-274.6686 2711.7573,-275.4097 2950.3483,-295 2952.8833,-295.2081 2955.4579,-295.4357 2958.0561,-295.6791"/>
<polygon fill="#000000" stroke="#000000" points="2957.8629,-299.1772 2968.1617,-296.6902 2958.5598,-292.212 2957.8629,-299.1772"/>
<text text-anchor="middle" x="2747.0135" y="-295.2" font-family="Times,serif" font-size="14.00" fill="#000000">NotAloneInSession [2+ members &amp; 'push' mode]</text>
</g>
<!-- Decision3&#45;&gt;Polling -->
<g id="edge30" class="edge">
<title>Decision3-&gt;Polling</title>
<path fill="none" stroke="#000000" d="M2284.2107,-388.0804C2363.1316,-390.7788 2484.3488,-396.84 2588.7937,-410.2 2606.7936,-412.5025 2625.8265,-415.6147 2644.2141,-418.9787"/>
<polygon fill="#000000" stroke="#000000" points="2643.5837,-422.4214 2654.0558,-420.8137 2644.8668,-415.54 2643.5837,-422.4214"/>
<text text-anchor="middle" x="2450.9056" y="-415.2" font-family="Times,serif" font-size="14.00" fill="#000000">NotAloneInSession [2+ members &amp; 'poll' mode]</text>
</g>
<!-- Decision3&#45;&gt;Pushing -->
<g id="edge31" class="edge">
<title>Decision3-&gt;Pushing</title>
<path fill="none" stroke="#000000" d="M2287.094,-384.4978C2417.9347,-381.2643 2672.9464,-371.1771 2887.2333,-340 2910.4473,-336.6225 2935.3905,-331.5789 2958.1656,-326.4037"/>
<polygon fill="#000000" stroke="#000000" points="2959.1666,-329.7647 2968.1215,-324.1025 2957.5901,-322.9445 2959.1666,-329.7647"/>
<text text-anchor="middle" x="2747.0135" y="-373.2" font-family="Times,serif" font-size="14.00" fill="#000000">NotAloneInSession [2+ members &amp; 'push' mode]</text>
</g>
<!-- Decision4&#45;&gt;WaitForSessionId -->
<g id="edge48" class="edge">
<title>Decision4-&gt;WaitForSessionId</title>
<path fill="none" stroke="#000000" d="M3624.1913,-263.4829C3599.2942,-362.8429 3469.8995,-852 3335.5125,-852 1295.5378,-852 1295.5378,-852 1295.5378,-852 1213.0405,-852 1118.1894,-848.746 1055.6679,-846.1513"/>
<polygon fill="#000000" stroke="#000000" points="1055.6729,-842.6485 1045.5345,-845.7247 1055.3784,-849.6423 1055.6729,-842.6485"/>
<text text-anchor="middle" x="2200.1375" y="-856.2" font-family="Times,serif" font-size="14.00" fill="#000000">Connected [no session id]</text>
</g>
<!-- Decision4&#45;&gt;RegisterInSession -->
<g id="edge47" class="edge">
<title>Decision4-&gt;RegisterInSession</title>
<path fill="none" stroke="#000000" d="M3584.1286,-235.5336C3543.6726,-226.2121 3482.1655,-212.6018 3428.2615,-203 2998.1983,-126.394 2887.7383,-99 2450.9056,-99 1866.862,-99 1866.862,-99 1866.862,-99 1759.3418,-99 1732.4487,-138.7676 1651.9096,-210 1619.0566,-239.0567 1592.2278,-282.1227 1575.9998,-311.9759"/>
<polygon fill="#000000" stroke="#000000" points="1572.7155,-310.6974 1571.1092,-321.1698 1578.8956,-313.9848 1572.7155,-310.6974"/>
<text text-anchor="middle" x="2747.0135" y="-120.2" font-family="Times,serif" font-size="14.00" fill="#000000">Connected [has session id]</text>
</g>
<!-- init -->
<g id="node15" class="node">
<title>init</title>
<ellipse fill="#000000" stroke="#000000" cx="1.8" cy="-730" rx="1.8" ry="1.8"/>
</g>
<!-- init&#45;&gt;Idle -->
<g id="edge52" class="edge">
<title>init-&gt;Idle</title>
<path fill="none" stroke="#000000" d="M3.7115,-730C7.8028,-730 18.0308,-730 30.1782,-730"/>
<polygon fill="#000000" stroke="#000000" points="30.2511,-733.5001 40.2511,-730 30.2511,-726.5001 30.2511,-733.5001"/>
</g>
</g>
</svg>