<?xml version="1.0" encoding="UTF-8" standalone="no"?><!DOCTYPE svg PUBLIC "-//W3C//DTD SVG 1.1//EN" "http://www.w3.org/Graphics/SVG/1.1/DTD/svg11.dtd"><!-- Generated by graphviz version 2.40.1 (20161225.0304)
 --><!-- Title: %0 Pages: 1 --><svg xmlns="http://www.w3.org/2000/svg" xmlns:xlink="http://www.w3.org/1999/xlink" width="3638pt" height="986pt" viewBox="0.00 0.00 3638.22 985.70">
<g id="graph0" class="graph" transform="scale(1 1) rotate(0) translate(4 981.7029)">
<title>%0</title>
<polygon fill="#ffffff" stroke="transparent" points="-4,4 -4,-981.7029 3634.2173,-981.7029 3634.2173,4 -4,4"/>
<!-- Idle -->
<g id="node1" class="node">
<title>Idle</title>
<path fill="none" stroke="#000000" d="M52.6,-713.1029C52.6,-713.1029 134.0348,-713.1029 134.0348,-713.1029 140.0348,-713.1029 146.0348,-719.1029 146.0348,-725.1029 146.0348,-725.1029 146.0348,-750.7029 146.0348,-750.7029 146.0348,-756.7029 140.0348,-762.7029 134.0348,-762.7029 134.0348,-762.7029 52.6,-762.7029 52.6,-762.7029 46.6,-762.7029 40.6,-756.7029 40.6,-750.7029 40.6,-750.7029 40.6,-725.1029 40.6,-725.1029 40.6,-719.1029 46.6,-713.1029 52.6,-713.1029"/>
<text text-anchor="middle" x="93.3174" y="-746.1029" font-family="Times,serif" font-size="14.00" fill="#000000">Idle</text>
<polyline fill="none" stroke="#000000" points="40.6,-737.9029 146.0348,-737.9029 "/>
<text text-anchor="middle" x="93.3174" y="-721.3029" font-family="Times,serif" font-size="14.00" fill="#000000">entry / Function</text>
</g>
<!-- VersionCheck -->
<g id="node2" class="node">
<title>VersionCheck</title>
<path fill="none" stroke="#000000" d="M277.227,-764.7029C277.227,-764.7029 420.8498,-764.7029 420.8498,-764.7029 426.8498,-764.7029 432.8498,-770.7029 432.8498,-776.7029 432.8498,-776.7029 432.8498,-819.1029 432.8498,-819.1029 432.8498,-825.1029 426.8498,-831.1029 420.8498,-831.1029 420.8498,-831.1029 277.227,-831.1029 277.227,-831.1029 271.227,-831.1029 265.227,-825.1029 265.227,-819.1029 265.227,-819.1029 265.227,-776.7029 265.227,-776.7029 265.227,-770.7029 271.227,-764.7029 277.227,-764.7029"/>
<text text-anchor="middle" x="349.0384" y="-814.5029" font-family="Times,serif" font-size="14.00" fill="#000000">VersionCheck</text>
<polyline fill="none" stroke="#000000" points="265.227,-806.3029 432.8498,-806.3029 "/>
<text text-anchor="middle" x="349.0384" y="-789.7029" font-family="Times,serif" font-size="14.00" fill="#000000">entry / CheckVersion</text>
<text text-anchor="middle" x="349.0384" y="-772.9029" font-family="Times,serif" font-size="14.00" fill="#000000">exit / CancelCurrentAction</text>
</g>
<!-- Idle&#45;&gt;VersionCheck -->
<g id="edge1" class="edge">
<title>Idle-&gt;VersionCheck</title>
<path fill="none" stroke="#000000" d="M100.1828,-762.883C109.462,-791.2212 129.0201,-836.066 164.0348,-855.9029 205.2468,-879.2507 257.0507,-859.406 295.35,-836.7985"/>
<polygon fill="#000000" stroke="#000000" points="297.5856,-839.5339 304.2884,-831.3289 293.9318,-833.5631 297.5856,-839.5339"/>
<text text-anchor="middle" x="205.6309" y="-870.1029" font-family="Times,serif" font-size="14.00" fill="#000000">SetPush</text>
</g>
<!-- Idle&#45;&gt;VersionCheck -->
<g id="edge2" class="edge">
<title>Idle-&gt;VersionCheck</title>
<path fill="none" stroke="#000000" d="M107.7528,-762.7415C120.0663,-781.2407 139.6366,-805.0902 164.0348,-815.9029 192.1317,-828.3547 224.9268,-829.0512 255.0362,-825.0152"/>
<polygon fill="#000000" stroke="#000000" points="255.7756,-828.4429 265.1336,-823.4752 254.7202,-821.523 255.7756,-828.4429"/>
<text text-anchor="middle" x="205.6309" y="-832.1029" font-family="Times,serif" font-size="14.00" fill="#000000">SetPoll</text>
</g>
<!-- VersionCheck&#45;&gt;Idle -->
<g id="edge3" class="edge">
<title>VersionCheck-&gt;Idle</title>
<path fill="none" stroke="#000000" d="M265.2152,-794.5964C233.0129,-791.6098 196.268,-786.0762 164.0348,-775.9029 156.9073,-773.6534 149.6629,-770.6789 142.6632,-767.3818"/>
<polygon fill="#000000" stroke="#000000" points="143.8159,-764.046 133.3039,-762.7238 140.697,-770.3128 143.8159,-764.046"/>
<text text-anchor="middle" x="205.6309" y="-797.1029" font-family="Times,serif" font-size="14.00" fill="#000000">SetIdle</text>
</g>
<!-- VersionCheck&#45;&gt;Idle -->
<g id="edge4" class="edge">
<title>VersionCheck-&gt;Idle</title>
<path fill="none" stroke="#000000" d="M277.0635,-764.6753C267.1878,-760.9968 257.0615,-757.6626 247.227,-755.1029 217.912,-747.473 184.59,-743.2275 156.4658,-740.8653"/>
<polygon fill="#000000" stroke="#000000" points="156.5983,-737.365 146.3565,-740.0774 156.0543,-744.3439 156.5983,-737.365"/>
<text text-anchor="middle" x="205.6309" y="-760.1029" font-family="Times,serif" font-size="14.00" fill="#000000">WrongVersion</text>
</g>
<!-- VersionCheck&#45;&gt;Idle -->
<g id="edge5" class="edge">
<title>VersionCheck-&gt;Idle</title>
<path fill="none" stroke="#000000" d="M316.5117,-764.6569C297.9608,-748.1119 273.2604,-729.8208 247.227,-721.1029 218.1573,-711.3682 184.4407,-713.6421 155.9878,-719.1566"/>
<polygon fill="#000000" stroke="#000000" points="155.2227,-715.7409 146.1594,-721.228 156.6663,-722.5905 155.2227,-715.7409"/>
<text text-anchor="middle" x="205.6309" y="-726.1029" font-family="Times,serif" font-size="14.00" fill="#000000">SendingError</text>
</g>
<!-- Decision1 -->
<g id="node11" class="node">
<title>Decision1</title>
<polygon fill="none" stroke="#000000" points="620.5878,-815.9029 530.4586,-797.9029 620.5878,-779.9029 710.717,-797.9029 620.5878,-815.9029"/>
<text text-anchor="middle" x="620.5878" y="-793.7029" font-family="Times,serif" font-size="14.00" fill="#000000">check session</text>
</g>
<!-- VersionCheck&#45;&gt;Decision1 -->
<g id="edge6" class="edge">
<title>VersionCheck-&gt;Decision1</title>
<path fill="none" stroke="#000000" d="M433.0987,-797.9029C460.6872,-797.9029 491.6248,-797.9029 520.293,-797.9029"/>
<polygon fill="#000000" stroke="#000000" points="520.3294,-801.403 530.3294,-797.9029 520.3293,-794.403 520.3294,-801.403"/>
<text text-anchor="middle" x="481.5616" y="-802.1029" font-family="Times,serif" font-size="14.00" fill="#000000">VersionOk</text>
</g>
<!-- WaitForSessionId -->
<g id="node3" class="node">
<title>WaitForSessionId</title>
<path fill="none" stroke="#000000" d="M922.5478,-822.9029C922.5478,-822.9029 1015.639,-822.9029 1015.639,-822.9029 1021.639,-822.9029 1027.639,-828.9029 1027.639,-834.9029 1027.639,-834.9029 1027.639,-846.9029 1027.639,-846.9029 1027.639,-852.9029 1021.639,-858.9029 1015.639,-858.9029 1015.639,-858.9029 922.5478,-858.9029 922.5478,-858.9029 916.5478,-858.9029 910.5478,-852.9029 910.5478,-846.9029 910.5478,-846.9029 910.5478,-834.9029 910.5478,-834.9029 910.5478,-828.9029 916.5478,-822.9029 922.5478,-822.9029"/>
<text text-anchor="middle" x="969.0934" y="-836.8029" font-family="Times,serif" font-size="14.00" fill="#000000">WaitForSessionId</text>
</g>
<!-- WaitForSessionId&#45;&gt;Idle -->
<g id="edge10" class="edge">
<title>WaitForSessionId-&gt;Idle</title>
<path fill="none" stroke="#000000" d="M927.2586,-858.9336C800.5397,-910.5178 414.2938,-1045.1417 164.0348,-886.9029 124.6061,-861.9721 106.7213,-808.4277 98.9282,-772.7861"/>
<polygon fill="#000000" stroke="#000000" points="102.3209,-771.9049 96.9044,-762.7993 95.4604,-773.2953 102.3209,-771.9049"/>
<text text-anchor="middle" x="481.5616" y="-965.1029" font-family="Times,serif" font-size="14.00" fill="#000000">SetIdle</text>
</g>
<!-- Connecting -->
<g id="node4" class="node">
<title>Connecting</title>
<path fill="none" stroke="#000000" d="M1196.9136,-717.7029C1196.9136,-717.7029 1340.5364,-717.7029 1340.5364,-717.7029 1346.5364,-717.7029 1352.5364,-723.7029 1352.5364,-729.7029 1352.5364,-729.7029 1352.5364,-772.1029 1352.5364,-772.1029 1352.5364,-778.1029 1346.5364,-784.1029 1340.5364,-784.1029 1340.5364,-784.1029 1196.9136,-784.1029 1196.9136,-784.1029 1190.9136,-784.1029 1184.9136,-778.1029 1184.9136,-772.1029 1184.9136,-772.1029 1184.9136,-729.7029 1184.9136,-729.7029 1184.9136,-723.7029 1190.9136,-717.7029 1196.9136,-717.7029"/>
<text text-anchor="middle" x="1268.725" y="-767.5029" font-family="Times,serif" font-size="14.00" fill="#000000">Connecting</text>
<polyline fill="none" stroke="#000000" points="1184.9136,-759.3029 1352.5364,-759.3029 "/>
<text text-anchor="middle" x="1268.725" y="-742.7029" font-family="Times,serif" font-size="14.00" fill="#000000">entry / Connect</text>
<text text-anchor="middle" x="1268.725" y="-725.9029" font-family="Times,serif" font-size="14.00" fill="#000000">exit / CancelCurrentAction</text>
</g>
<!-- WaitForSessionId&#45;&gt;Connecting -->
<g id="edge9" class="edge">
<title>WaitForSessionId-&gt;Connecting</title>
<path fill="none" stroke="#000000" d="M1027.9335,-823.2292C1069.7881,-810.6573 1126.8891,-793.506 1174.9814,-779.0605"/>
<polygon fill="#000000" stroke="#000000" points="1176.2146,-782.3447 1184.785,-776.1159 1174.2008,-775.6406 1176.2146,-782.3447"/>
<text text-anchor="middle" x="1114.8119" y="-816.1029" font-family="Times,serif" font-size="14.00" fill="#000000">SessionIdChanged</text>
</g>
<!-- Connecting&#45;&gt;Idle -->
<g id="edge13" class="edge">
<title>Connecting-&gt;Idle</title>
<path fill="none" stroke="#000000" d="M1184.6729,-746.4969C1010.0946,-737.5915 595.4635,-717.7184 247.227,-710.9029 210.2598,-710.1794 200.396,-704.1976 164.0348,-710.9029 161.3995,-711.3889 158.7355,-711.9687 156.0638,-712.6244"/>
<polygon fill="#000000" stroke="#000000" points="155.1006,-709.2593 146.3952,-715.2981 156.9663,-716.0061 155.1006,-709.2593"/>
<text text-anchor="middle" x="620.5878" y="-730.1029" font-family="Times,serif" font-size="14.00" fill="#000000">ConnectionFailed</text>
</g>
<!-- RegisterInSession -->
<g id="node5" class="node">
<title>RegisterInSession</title>
<path fill="none" stroke="#000000" d="M1460.4074,-318.7029C1460.4074,-318.7029 1604.0302,-318.7029 1604.0302,-318.7029 1610.0302,-318.7029 1616.0302,-324.7029 1616.0302,-330.7029 1616.0302,-330.7029 1616.0302,-373.1029 1616.0302,-373.1029 1616.0302,-379.1029 1610.0302,-385.1029 1604.0302,-385.1029 1604.0302,-385.1029 1460.4074,-385.1029 1460.4074,-385.1029 1454.4074,-385.1029 1448.4074,-379.1029 1448.4074,-373.1029 1448.4074,-373.1029 1448.4074,-330.7029 1448.4074,-330.7029 1448.4074,-324.7029 1454.4074,-318.7029 1460.4074,-318.7029"/>
<text text-anchor="middle" x="1532.2188" y="-368.5029" font-family="Times,serif" font-size="14.00" fill="#000000">RegisterInSession</text>
<polyline fill="none" stroke="#000000" points="1448.4074,-360.3029 1616.0302,-360.3029 "/>
<text text-anchor="middle" x="1532.2188" y="-343.7029" font-family="Times,serif" font-size="14.00" fill="#000000">entry / SendSessionInfo</text>
<text text-anchor="middle" x="1532.2188" y="-326.9029" font-family="Times,serif" font-size="14.00" fill="#000000">exit / CancelCurrentAction</text>
</g>
<!-- Connecting&#45;&gt;RegisterInSession -->
<g id="edge11" class="edge">
<title>Connecting-&gt;RegisterInSession</title>
<path fill="none" stroke="#000000" d="M1290.7371,-717.5707C1338.5548,-645.1619 1451.8397,-473.6183 1504.463,-393.9327"/>
<polygon fill="#000000" stroke="#000000" points="1507.6796,-395.4131 1510.2697,-385.1398 1501.8383,-391.5556 1507.6796,-395.4131"/>
<text text-anchor="middle" x="1400.4719" y="-592.1029" font-family="Times,serif" font-size="14.00" fill="#000000">Connected</text>
</g>
<!-- Disconnecting -->
<g id="node10" class="node">
<title>Disconnecting</title>
<path fill="none" stroke="#000000" d="M3219.0089,-589.1029C3219.0089,-589.1029 3313.6415,-589.1029 3313.6415,-589.1029 3319.6415,-589.1029 3325.6415,-595.1029 3325.6415,-601.1029 3325.6415,-601.1029 3325.6415,-626.7029 3325.6415,-626.7029 3325.6415,-632.7029 3319.6415,-638.7029 3313.6415,-638.7029 3313.6415,-638.7029 3219.0089,-638.7029 3219.0089,-638.7029 3213.0089,-638.7029 3207.0089,-632.7029 3207.0089,-626.7029 3207.0089,-626.7029 3207.0089,-601.1029 3207.0089,-601.1029 3207.0089,-595.1029 3213.0089,-589.1029 3219.0089,-589.1029"/>
<text text-anchor="middle" x="3266.3252" y="-622.1029" font-family="Times,serif" font-size="14.00" fill="#000000">Disconnecting</text>
<polyline fill="none" stroke="#000000" points="3207.0089,-613.9029 3325.6415,-613.9029 "/>
<text text-anchor="middle" x="3266.3252" y="-597.3029" font-family="Times,serif" font-size="14.00" fill="#000000">entry / Disconnect</text>
</g>
<!-- Connecting&#45;&gt;Disconnecting -->
<g id="edge12" class="edge">
<title>Connecting-&gt;Disconnecting</title>
<path fill="none" stroke="#000000" d="M1352.6823,-750.9029C1404.4413,-750.9029 1472.1779,-750.9029 1532.2188,-750.9029 1532.2188,-750.9029 1532.2188,-750.9029 3002.0313,-750.9029 3086.9209,-750.9029 3116.8269,-756.5796 3189.0089,-711.9029 3214.2744,-696.2649 3234.6545,-669.2666 3248.1348,-647.5624"/>
<polygon fill="#000000" stroke="#000000" points="3251.1664,-649.3125 3253.3085,-638.9364 3245.1634,-645.712 3251.1664,-649.3125"/>
<text text-anchor="middle" x="2164.3829" y="-755.1029" font-family="Times,serif" font-size="14.00" fill="#000000">SetIdle</text>
</g>
<!-- RegisterInSession&#45;&gt;RegisterInSession -->
<g id="edge14" class="edge">
<title>RegisterInSession-&gt;RegisterInSession</title>
<path fill="none" stroke="#000000" d="M1524.1017,-385.2186C1524.2657,-395.5163 1526.9714,-403.6029 1532.2188,-403.6029 1535.5804,-403.6029 1537.8989,-400.2842 1539.1743,-395.1914"/>
<polygon fill="#000000" stroke="#000000" points="1542.6554,-395.5565 1540.3359,-385.2186 1535.7024,-394.7465 1542.6554,-395.5565"/>
<text text-anchor="middle" x="1532.2188" y="-407.8029" font-family="Times,serif" font-size="14.00" fill="#000000">SessionIdChanged / SendSessionInfo</text>
</g>
<!-- RegisterInSession&#45;&gt;RegisterInSession -->
<g id="edge15" class="edge">
<title>RegisterInSession-&gt;RegisterInSession</title>
<path fill="none" stroke="#000000" d="M1516.8029,-385.2499C1513.7924,-404.1261 1518.931,-421.6029 1532.2188,-421.6029 1543.0151,-421.6029 1548.4317,-410.0655 1548.4686,-395.6142"/>
<polygon fill="#000000" stroke="#000000" points="1551.9255,-394.9369 1547.6347,-385.2499 1544.9481,-395.4984 1551.9255,-394.9369"/>
<text text-anchor="middle" x="1532.2188" y="-425.8029" font-family="Times,serif" font-size="14.00" fill="#000000">SetPush / SendSessionInfo</text>
</g>
<!-- RegisterInSession&#45;&gt;RegisterInSession -->
<g id="edge16" class="edge">
<title>RegisterInSession-&gt;RegisterInSession</title>
<path fill="none" stroke="#000000" d="M1511.2715,-385.1972C1502.8926,-411.9683 1509.8751,-439.6029 1532.2188,-439.6029 1551.7696,-439.6029 1559.5594,-418.4451 1555.5881,-395.2212"/>
<polygon fill="#000000" stroke="#000000" points="1558.9169,-394.0954 1553.1661,-385.1972 1552.1127,-395.7395 1558.9169,-394.0954"/>
<text text-anchor="middle" x="1532.2188" y="-443.8029" font-family="Times,serif" font-size="14.00" fill="#000000">SetPoll / SendSessionInfo</text>
</g>
<!-- WaitingForPlayers -->
<g id="node6" class="node">
<title>WaitingForPlayers</title>
<path fill="none" stroke="#000000" d="M1768.2336,-358.7029C1768.2336,-358.7029 1911.8564,-358.7029 1911.8564,-358.7029 1917.8564,-358.7029 1923.8564,-364.7029 1923.8564,-370.7029 1923.8564,-370.7029 1923.8564,-413.1029 1923.8564,-413.1029 1923.8564,-419.1029 1917.8564,-425.1029 1911.8564,-425.1029 1911.8564,-425.1029 1768.2336,-425.1029 1768.2336,-425.1029 1762.2336,-425.1029 1756.2336,-419.1029 1756.2336,-413.1029 1756.2336,-413.1029 1756.2336,-370.7029 1756.2336,-370.7029 1756.2336,-364.7029 1762.2336,-358.7029 1768.2336,-358.7029"/>
<text text-anchor="middle" x="1840.045" y="-408.5029" font-family="Times,serif" font-size="14.00" fill="#000000">WaitingForPlayers</text>
<polyline fill="none" stroke="#000000" points="1756.2336,-400.3029 1923.8564,-400.3029 "/>
<text text-anchor="middle" x="1840.045" y="-383.7029" font-family="Times,serif" font-size="14.00" fill="#000000">entry / WaitForPlayers</text>
<text text-anchor="middle" x="1840.045" y="-366.9029" font-family="Times,serif" font-size="14.00" fill="#000000">exit / CancelCurrentAction</text>
</g>
<!-- RegisterInSession&#45;&gt;WaitingForPlayers -->
<g id="edge17" class="edge">
<title>RegisterInSession-&gt;WaitingForPlayers</title>
<path fill="none" stroke="#000000" d="M1616.062,-345.6499C1653.7109,-344.5649 1698.5062,-345.6698 1738.2336,-353.1029 1742.417,-353.8856 1746.6516,-354.8305 1750.8959,-355.9029"/>
<polygon fill="#000000" stroke="#000000" points="1750.2279,-359.349 1760.7977,-358.6206 1752.0807,-352.5986 1750.2279,-359.349"/>
<text text-anchor="middle" x="1686.1319" y="-358.1029" font-family="Times,serif" font-size="14.00" fill="#000000">AloneInSession</text>
</g>
<!-- Reconnecting -->
<g id="node9" class="node">
<title>Reconnecting</title>
<path fill="none" stroke="#000000" d="M3227.1688,-225.1029C3227.1688,-225.1029 3305.4816,-225.1029 3305.4816,-225.1029 3311.4816,-225.1029 3317.4816,-231.1029 3317.4816,-237.1029 3317.4816,-237.1029 3317.4816,-262.7029 3317.4816,-262.7029 3317.4816,-268.7029 3311.4816,-274.7029 3305.4816,-274.7029 3305.4816,-274.7029 3227.1688,-274.7029 3227.1688,-274.7029 3221.1688,-274.7029 3215.1688,-268.7029 3215.1688,-262.7029 3215.1688,-262.7029 3215.1688,-237.1029 3215.1688,-237.1029 3215.1688,-231.1029 3221.1688,-225.1029 3227.1688,-225.1029"/>
<text text-anchor="middle" x="3266.3252" y="-258.1029" font-family="Times,serif" font-size="14.00" fill="#000000">Reconnecting</text>
<polyline fill="none" stroke="#000000" points="3215.1688,-249.9029 3317.4816,-249.9029 "/>
<text text-anchor="middle" x="3266.3252" y="-233.3029" font-family="Times,serif" font-size="14.00" fill="#000000">entry / Connect</text>
</g>
<!-- RegisterInSession&#45;&gt;Reconnecting -->
<g id="edge18" class="edge">
<title>RegisterInSession-&gt;Reconnecting</title>
<path fill="none" stroke="#000000" d="M1573.8547,-318.6856C1591.748,-305.3143 1613.2848,-290.377 1634.0302,-278.9029 1685.382,-250.5007 1699.6556,-244.4789 1756.2336,-228.9029 2226.1842,-99.5249 2367.5718,-113.3671 2851.4787,-171.9029 2978.1105,-187.2209 3124.3185,-217.7664 3204.9446,-235.7519"/>
<polygon fill="#000000" stroke="#000000" points="3204.3997,-239.2165 3214.9232,-237.9885 3205.9308,-232.386 3204.3997,-239.2165"/>
<text text-anchor="middle" x="2415.151" y="-143.1029" font-family="Times,serif" font-size="14.00" fill="#000000">SendingError</text>
</g>
<!-- RegisterInSession&#45;&gt;Disconnecting -->
<g id="edge19" class="edge">
<title>RegisterInSession-&gt;Disconnecting</title>
<path fill="none" stroke="#000000" d="M1550.591,-385.3515C1592.1194,-455.9834 1700.565,-613.9029 1840.045,-613.9029 1840.045,-613.9029 1840.045,-613.9029 3002.0313,-613.9029 3068.0915,-613.9029 3143.4396,-613.9029 3196.7354,-613.9029"/>
<polygon fill="#000000" stroke="#000000" points="3196.7568,-617.403 3206.7567,-613.9029 3196.7567,-610.403 3196.7568,-617.403"/>
<text text-anchor="middle" x="2415.151" y="-618.1029" font-family="Times,serif" font-size="14.00" fill="#000000">SetIdle</text>
</g>
<!-- Decision2 -->
<g id="node12" class="node">
<title>Decision2</title>
<polygon fill="none" stroke="#000000" points="2164.3829,-299.9029 2069.6229,-281.9029 2164.3829,-263.9029 2259.143,-281.9029 2164.3829,-299.9029"/>
<text text-anchor="middle" x="2164.3829" y="-277.7029" font-family="Times,serif" font-size="14.00" fill="#000000">working mode</text>
</g>
<!-- RegisterInSession&#45;&gt;Decision2 -->
<g id="edge20" class="edge">
<title>RegisterInSession-&gt;Decision2</title>
<path fill="none" stroke="#000000" d="M1616.1653,-342.6074C1741.8467,-328.6906 1976.6572,-302.6899 2093.9425,-289.7028"/>
<polygon fill="#000000" stroke="#000000" points="2094.6805,-293.1426 2104.2346,-288.5632 2093.9101,-286.1851 2094.6805,-293.1426"/>
<text text-anchor="middle" x="1840.045" y="-331.1029" font-family="Times,serif" font-size="14.00" fill="#000000">NotAloneInSession</text>
</g>
<!-- WaitingForPlayers&#45;&gt;RegisterInSession -->
<g id="edge25" class="edge">
<title>WaitingForPlayers-&gt;RegisterInSession</title>
<path fill="none" stroke="#000000" d="M1756.1867,-384.2634C1718.7336,-380.5129 1674.0964,-375.5772 1634.0302,-369.9029 1631.3727,-369.5265 1628.6783,-369.1327 1625.9603,-368.7248"/>
<polygon fill="#000000" stroke="#000000" points="1626.4574,-365.2601 1616.0401,-367.1919 1625.3883,-372.178 1626.4574,-365.2601"/>
<text text-anchor="middle" x="1686.1319" y="-387.1029" font-family="Times,serif" font-size="14.00" fill="#000000">SessionIdChanged</text>
</g>
<!-- WaitingForPlayers&#45;&gt;Reconnecting -->
<g id="edge24" class="edge">
<title>WaitingForPlayers-&gt;Reconnecting</title>
<path fill="none" stroke="#000000" d="M1904.8637,-358.5767C1911.3213,-355.0468 1917.7446,-351.45 1923.8564,-347.9029 1990.2827,-309.3516 1995.8328,-276.6134 2069.503,-254.9029 2285.2101,-191.3342 2991.7731,-231.6891 3204.9148,-245.6734"/>
<polygon fill="#000000" stroke="#000000" points="3204.7765,-249.1718 3214.9855,-246.3387 3205.238,-242.187 3204.7765,-249.1718"/>
<text text-anchor="middle" x="2711.2589" y="-232.1029" font-family="Times,serif" font-size="14.00" fill="#000000">ConnectionFailed</text>
</g>
<!-- WaitingForPlayers&#45;&gt;Disconnecting -->
<g id="edge23" class="edge">
<title>WaitingForPlayers-&gt;Disconnecting</title>
<path fill="none" stroke="#000000" d="M1875.2735,-425.1757C1891.1606,-441.176 1909.5287,-461.1429 1923.8564,-480.9029 1933.6634,-494.4282 1927.7924,-504.8854 1941.8564,-513.9029 2000.3215,-551.3895 3120.0913,-591.3137 3189.0089,-599.9029 3191.5554,-600.2203 3194.1452,-600.5666 3196.7582,-600.9359"/>
<polygon fill="#000000" stroke="#000000" points="3196.4996,-604.4363 3206.9088,-602.4618 3197.5402,-597.5141 3196.4996,-604.4363"/>
<text text-anchor="middle" x="2711.2589" y="-587.1029" font-family="Times,serif" font-size="14.00" fill="#000000">SetIdle</text>
</g>
<!-- WaitingForPlayers&#45;&gt;Disconnecting -->
<g id="edge26" class="edge">
<title>WaitingForPlayers-&gt;Disconnecting</title>
<path fill="none" stroke="#000000" d="M1918.7828,-425.1076C1926.5185,-427.917 1934.3003,-430.5706 1941.8564,-432.9029 1997.3535,-450.0328 2012.1969,-451.4493 2069.503,-460.9029 2414.5385,-517.8224 2504.176,-507.235 2851.4787,-548.1029 3001.6023,-565.7683 3041.2367,-558.0821 3189.0089,-589.9029 3191.6237,-590.466 3194.2771,-591.078 3196.9488,-591.7285"/>
<polygon fill="#000000" stroke="#000000" points="3196.1097,-595.1265 3206.6669,-594.234 3197.8573,-588.3482 3196.1097,-595.1265"/>
<text text-anchor="middle" x="2711.2589" y="-553.1029" font-family="Times,serif" font-size="14.00" fill="#000000">PlayerWaitingTimeout</text>
</g>
<!-- Decision3 -->
<g id="node13" class="node">
<title>Decision3</title>
<polygon fill="none" stroke="#000000" points="2164.3829,-409.9029 2069.6229,-391.9029 2164.3829,-373.9029 2259.143,-391.9029 2164.3829,-409.9029"/>
<text text-anchor="middle" x="2164.3829" y="-387.7029" font-family="Times,serif" font-size="14.00" fill="#000000">working mode</text>
</g>
<!-- WaitingForPlayers&#45;&gt;Decision3 -->
<g id="edge27" class="edge">
<title>WaitingForPlayers-&gt;Decision3</title>
<path fill="none" stroke="#000000" d="M1923.9919,-391.9029C1965.3481,-391.9029 2015.6292,-391.9029 2059.4945,-391.9029"/>
<polygon fill="#000000" stroke="#000000" points="2059.6211,-395.403 2069.6211,-391.9029 2059.621,-388.403 2059.6211,-395.403"/>
<text text-anchor="middle" x="1996.6797" y="-396.1029" font-family="Times,serif" font-size="14.00" fill="#000000">NotAloneInSession</text>
</g>
<!-- Polling -->
<g id="node7" class="node">
<title>Polling</title>
<path fill="none" stroke="#000000" d="M2666.667,-412.7029C2666.667,-412.7029 2755.8508,-412.7029 2755.8508,-412.7029 2761.8508,-412.7029 2767.8508,-418.7029 2767.8508,-424.7029 2767.8508,-424.7029 2767.8508,-467.1029 2767.8508,-467.1029 2767.8508,-473.1029 2761.8508,-479.1029 2755.8508,-479.1029 2755.8508,-479.1029 2666.667,-479.1029 2666.667,-479.1029 2660.667,-479.1029 2654.667,-473.1029 2654.667,-467.1029 2654.667,-467.1029 2654.667,-424.7029 2654.667,-424.7029 2654.667,-418.7029 2660.667,-412.7029 2666.667,-412.7029"/>
<text text-anchor="middle" x="2711.2589" y="-462.5029" font-family="Times,serif" font-size="14.00" fill="#000000">Polling</text>
<polyline fill="none" stroke="#000000" points="2654.667,-454.3029 2767.8508,-454.3029 "/>
<text text-anchor="middle" x="2711.2589" y="-437.7029" font-family="Times,serif" font-size="14.00" fill="#000000">entry / Function</text>
<text text-anchor="middle" x="2711.2589" y="-420.9029" font-family="Times,serif" font-size="14.00" fill="#000000">exit / ClearCache</text>
</g>
<!-- Polling&#45;&gt;RegisterInSession -->
<g id="edge32" class="edge">
<title>Polling-&gt;RegisterInSession</title>
<path fill="none" stroke="#000000" d="M2654.3975,-459.0341C2500.5469,-493.7192 2078.5003,-583.0452 1941.8564,-551.9029 1807.3748,-521.2534 1666.1428,-439.6398 1589.6812,-390.6597"/>
<polygon fill="#000000" stroke="#000000" points="1591.4343,-387.6256 1581.1335,-385.1469 1587.6403,-393.5082 1591.4343,-387.6256"/>
<text text-anchor="middle" x="1996.6797" y="-563.1029" font-family="Times,serif" font-size="14.00" fill="#000000">SessionIdChanged</text>
</g>
<!-- Polling&#45;&gt;WaitingForPlayers -->
<g id="edge35" class="edge">
<title>Polling-&gt;WaitingForPlayers</title>
<path fill="none" stroke="#000000" d="M2654.4984,-446.8378C2526.6614,-448.2083 2206.6679,-447.5234 1941.8564,-412.9029 1939.3119,-412.5702 1936.736,-412.2097 1934.14,-411.8255"/>
<polygon fill="#000000" stroke="#000000" points="1934.4744,-408.3351 1924.0513,-410.2348 1933.3841,-415.2497 1934.4744,-408.3351"/>
<text text-anchor="middle" x="2164.3829" y="-444.1029" font-family="Times,serif" font-size="14.00" fill="#000000">AloneInSession</text>
</g>
<!-- Pushing -->
<g id="node8" class="node">
<title>Pushing</title>
<path fill="none" stroke="#000000" d="M2944.5937,-277.7029C2944.5937,-277.7029 3059.4689,-277.7029 3059.4689,-277.7029 3065.4689,-277.7029 3071.4689,-283.7029 3071.4689,-289.7029 3071.4689,-289.7029 3071.4689,-332.1029 3071.4689,-332.1029 3071.4689,-338.1029 3065.4689,-344.1029 3059.4689,-344.1029 3059.4689,-344.1029 2944.5937,-344.1029 2944.5937,-344.1029 2938.5937,-344.1029 2932.5937,-338.1029 2932.5937,-332.1029 2932.5937,-332.1029 2932.5937,-289.7029 2932.5937,-289.7029 2932.5937,-283.7029 2938.5937,-277.7029 2944.5937,-277.7029"/>
<text text-anchor="middle" x="3002.0313" y="-327.5029" font-family="Times,serif" font-size="14.00" fill="#000000">Pushing</text>
<polyline fill="none" stroke="#000000" points="2932.5937,-319.3029 3071.4689,-319.3029 "/>
<text text-anchor="middle" x="3002.0313" y="-302.7029" font-family="Times,serif" font-size="14.00" fill="#000000">entry / StartPushLoop</text>
<text text-anchor="middle" x="3002.0313" y="-285.9029" font-family="Times,serif" font-size="14.00" fill="#000000">exit / StopPushLoop</text>
</g>
<!-- Polling&#45;&gt;Pushing -->
<g id="edge30" class="edge">
<title>Polling-&gt;Pushing</title>
<path fill="none" stroke="#000000" d="M2767.9672,-433.9304C2819.5492,-422.2471 2891.0995,-403.8118 2914.5937,-386.9029 2926.001,-378.6929 2922.7481,-370.9326 2932.5937,-360.9029 2935.992,-357.441 2939.6533,-354.0487 2943.4551,-350.7645"/>
<polygon fill="#000000" stroke="#000000" points="2945.9362,-353.2548 2951.417,-344.1877 2941.4782,-347.8579 2945.9362,-353.2548"/>
<text text-anchor="middle" x="2892.0362" y="-410.1029" font-family="Times,serif" font-size="14.00" fill="#000000">SetPush</text>
</g>
<!-- Polling&#45;&gt;Reconnecting -->
<g id="edge33" class="edge">
<title>Polling-&gt;Reconnecting</title>
<path fill="none" stroke="#000000" d="M2767.866,-453.099C2811.037,-455.7765 2870.4007,-453.1696 2914.5937,-426.9029 2926.9278,-419.5719 2920.989,-408.5413 2932.5937,-400.1029 3028.4466,-330.4032 3086.796,-386.8891 3189.0089,-326.9029 3208.4872,-315.4715 3226.5914,-297.9879 3240.3771,-282.5683"/>
<polygon fill="#000000" stroke="#000000" points="3243.264,-284.5818 3247.1768,-274.736 3237.9781,-279.9928 3243.264,-284.5818"/>
<text text-anchor="middle" x="3002.0313" y="-405.1029" font-family="Times,serif" font-size="14.00" fill="#000000">SendingError</text>
</g>
<!-- Polling&#45;&gt;Reconnecting -->
<g id="edge34" class="edge">
<title>Polling-&gt;Reconnecting</title>
<path fill="none" stroke="#000000" d="M2768.0796,-450.9037C2879.8548,-459.5577 3123.176,-472.1818 3189.0089,-424.9029 3234.7984,-392.0184 3253.8568,-325.8157 3261.5019,-284.9288"/>
<polygon fill="#000000" stroke="#000000" points="3264.9868,-285.3168 3263.249,-274.8654 3258.09,-284.1193 3264.9868,-285.3168"/>
<text text-anchor="middle" x="3002.0313" y="-464.1029" font-family="Times,serif" font-size="14.00" fill="#000000">ConnectionFailed</text>
</g>
<!-- Polling&#45;&gt;Disconnecting -->
<g id="edge31" class="edge">
<title>Polling-&gt;Disconnecting</title>
<path fill="none" stroke="#000000" d="M2767.8561,-458.2189C2797.9552,-464.5484 2835.6381,-472.124 2869.4787,-477.9029 3010.847,-502.044 3063.4434,-453.6128 3189.0089,-522.9029 3213.1998,-536.252 3233.1582,-560.3662 3246.7344,-580.4185"/>
<polygon fill="#000000" stroke="#000000" points="3243.9406,-582.5419 3252.3352,-589.0057 3249.8037,-578.7177 3243.9406,-582.5419"/>
<text text-anchor="middle" x="3002.0313" y="-490.1029" font-family="Times,serif" font-size="14.00" fill="#000000">SetIdle</text>
</g>
<!-- Pushing&#45;&gt;RegisterInSession -->
<g id="edge38" class="edge">
<title>Pushing-&gt;RegisterInSession</title>
<path fill="none" stroke="#000000" d="M2965.2982,-277.6012C2936.6144,-253.9456 2894.521,-224.1255 2851.4787,-210.9029 2646.7872,-148.0215 2240.1288,-182.2127 2069.503,-205.1029 1910.5797,-226.4231 1732.1089,-281.7169 1626.0947,-318.0263"/>
<polygon fill="#000000" stroke="#000000" points="1624.6971,-314.8057 1616.3806,-321.3697 1626.9753,-321.4246 1624.6971,-314.8057"/>
<text text-anchor="middle" x="2164.3829" y="-210.1029" font-family="Times,serif" font-size="14.00" fill="#000000">SessionIdChanged</text>
</g>
<!-- Pushing&#45;&gt;WaitingForPlayers -->
<g id="edge41" class="edge">
<title>Pushing-&gt;WaitingForPlayers</title>
<path fill="none" stroke="#000000" d="M2932.3487,-314.4001C2745.6683,-323.8554 2237.1093,-350.2021 2069.503,-364.9029 2024.9291,-368.8125 1975.6322,-374.4416 1934.192,-379.5493"/>
<polygon fill="#000000" stroke="#000000" points="1933.6015,-376.0956 1924.1088,-380.8008 1934.4638,-383.0423 1933.6015,-376.0956"/>
<text text-anchor="middle" x="2415.151" y="-355.1029" font-family="Times,serif" font-size="14.00" fill="#000000">AloneInSession</text>
</g>
<!-- Pushing&#45;&gt;Polling -->
<g id="edge36" class="edge">
<title>Pushing-&gt;Polling</title>
<path fill="none" stroke="#000000" d="M2932.4542,-339.6046C2900.8236,-352.6996 2870.1958,-365.4674 2869.4787,-366.1029 2857.3245,-376.8744 2863.9753,-387.5306 2851.4787,-397.9029 2830.5914,-415.2394 2803.1068,-426.4388 2778.0094,-433.6151"/>
<polygon fill="#000000" stroke="#000000" points="2776.909,-430.2867 2768.1621,-436.2652 2778.7281,-437.0462 2776.909,-430.2867"/>
<text text-anchor="middle" x="2892.0362" y="-371.1029" font-family="Times,serif" font-size="14.00" fill="#000000">SetPoll</text>
</g>
<!-- Pushing&#45;&gt;Reconnecting -->
<g id="edge39" class="edge">
<title>Pushing-&gt;Reconnecting</title>
<path fill="none" stroke="#000000" d="M3067.5286,-277.6158C3074.8084,-274.7397 3082.2143,-272.151 3089.4689,-270.1029 3126.7989,-259.564 3170.0378,-254.5036 3204.4177,-252.0829"/>
<polygon fill="#000000" stroke="#000000" points="3205.033,-255.5506 3214.7866,-251.4133 3204.5818,-248.5651 3205.033,-255.5506"/>
<text text-anchor="middle" x="3139.2389" y="-275.1029" font-family="Times,serif" font-size="14.00" fill="#000000">SendingError</text>
</g>
<!-- Pushing&#45;&gt;Reconnecting -->
<g id="edge40" class="edge">
<title>Pushing-&gt;Reconnecting</title>
<path fill="none" stroke="#000000" d="M3071.4951,-307.2717C3107.1795,-304.0877 3151.0281,-298.1129 3189.0089,-286.9029 3196.1717,-284.7888 3203.4976,-282.0815 3210.6474,-279.095"/>
<polygon fill="#000000" stroke="#000000" points="3212.5051,-282.102 3220.256,-274.8788 3209.6924,-275.692 3212.5051,-282.102"/>
<text text-anchor="middle" x="3139.2389" y="-310.1029" font-family="Times,serif" font-size="14.00" fill="#000000">ConnectionFailed</text>
</g>
<!-- Pushing&#45;&gt;Disconnecting -->
<g id="edge37" class="edge">
<title>Pushing-&gt;Disconnecting</title>
<path fill="none" stroke="#000000" d="M3055.9485,-344.368C3096.6485,-371.7695 3151.6756,-413.6543 3189.0089,-461.1029 3217.8316,-497.735 3240.3494,-546.8083 3253.4745,-579.3447"/>
<polygon fill="#000000" stroke="#000000" points="3250.3122,-580.8657 3257.2429,-588.8792 3256.8222,-578.2927 3250.3122,-580.8657"/>
<text text-anchor="middle" x="3139.2389" y="-466.1029" font-family="Times,serif" font-size="14.00" fill="#000000">SetIdle</text>
</g>
<!-- Reconnecting&#45;&gt;Idle -->
<g id="edge42" class="edge">
<title>Reconnecting-&gt;Idle</title>
<path fill="none" stroke="#000000" d="M3257.4785,-224.9925C3245.7213,-194.742 3222.4624,-143.5949 3189.0089,-109.9029 3121.8558,-42.2712 3097.3391,-4.9029 3002.0313,-4.9029 349.0384,-4.9029 349.0384,-4.9029 349.0384,-4.9029 265.0074,-4.9029 220.2157,18.5864 164.0348,-43.9029 119.591,-93.3371 99.365,-568.44 94.5068,-702.7154"/>
<polygon fill="#000000" stroke="#000000" points="91.0038,-702.7412 94.1458,-712.8594 97.9994,-702.9902 91.0038,-702.7412"/>
<text text-anchor="middle" x="1532.2188" y="-9.1029" font-family="Times,serif" font-size="14.00" fill="#000000">SetIdle</text>
</g>
<!-- Reconnecting&#45;&gt;Idle -->
<g id="edge43" class="edge">
<title>Reconnecting-&gt;Idle</title>
<path fill="none" stroke="#000000" d="M3223.6899,-224.8886C3212.6006,-218.9001 3200.5282,-212.8228 3189.0089,-207.9029 2866.8261,-70.2974 2765.4894,-57.9029 2415.151,-57.9029 349.0384,-57.9029 349.0384,-57.9029 349.0384,-57.9029 209.8259,-57.9029 120.5549,-563.5256 98.6094,-702.7732"/>
<polygon fill="#000000" stroke="#000000" points="95.1137,-702.4751 97.0317,-712.8949 102.0302,-703.5533 95.1137,-702.4751"/>
<text text-anchor="middle" x="1532.2188" y="-62.1029" font-family="Times,serif" font-size="14.00" fill="#000000">ConnectionFailed</text>
</g>
<!-- Decision4 -->
<g id="node14" class="node">
<title>Decision4</title>
<polygon fill="none" stroke="#000000" points="3525.8649,-267.9029 3421.6598,-249.9029 3525.8649,-231.9029 3630.0699,-249.9029 3525.8649,-267.9029"/>
<text text-anchor="middle" x="3525.8649" y="-245.7029" font-family="Times,serif" font-size="14.00" fill="#000000">check session id</text>
</g>
<!-- Reconnecting&#45;&gt;Decision4 -->
<g id="edge44" class="edge">
<title>Reconnecting-&gt;Decision4</title>
<path fill="none" stroke="#000000" d="M3317.6019,-249.9029C3344.5118,-249.9029 3378.635,-249.9029 3411.4326,-249.9029"/>
<polygon fill="#000000" stroke="#000000" points="3411.5593,-253.403 3421.5592,-249.9029 3411.5592,-246.403 3411.5593,-253.403"/>
<text text-anchor="middle" x="3373.577" y="-254.1029" font-family="Times,serif" font-size="14.00" fill="#000000">Connected</text>
</g>
<!-- Disconnecting&#45;&gt;Idle -->
<g id="edge47" class="edge">
<title>Disconnecting-&gt;Idle</title>
<path fill="none" stroke="#000000" d="M3206.845,-627.4073C3153.5077,-638.3296 3072.9563,-651.9029 3002.0313,-651.9029 349.0384,-651.9029 349.0384,-651.9029 349.0384,-651.9029 276.2818,-651.9029 197.6702,-683.5651 147.0952,-708.4663"/>
<polygon fill="#000000" stroke="#000000" points="145.3601,-705.4209 137.9858,-713.0281 148.4945,-711.6799 145.3601,-705.4209"/>
<text text-anchor="middle" x="1532.2188" y="-656.1029" font-family="Times,serif" font-size="14.00" fill="#000000">Disconnected</text>
</g>
<!-- Disconnecting&#45;&gt;Connecting -->
<g id="edge48" class="edge">
<title>Disconnecting-&gt;Connecting</title>
<path fill="none" stroke="#000000" d="M3235.6856,-638.8982C3222.1265,-648.7589 3205.5284,-659.2897 3189.0089,-665.9029 3110.7384,-697.2366 3086.3407,-697.9029 3002.0313,-697.9029 1532.2188,-697.9029 1532.2188,-697.9029 1532.2188,-697.9029 1475.1312,-697.9029 1412.4282,-710.0077 1362.5156,-722.6475"/>
<polygon fill="#000000" stroke="#000000" points="1361.5167,-719.2905 1352.7091,-725.1792 1363.2665,-726.0683 1361.5167,-719.2905"/>
<text text-anchor="middle" x="2164.3829" y="-702.1029" font-family="Times,serif" font-size="14.00" fill="#000000">SetPoll</text>
</g>
<!-- Disconnecting&#45;&gt;Connecting -->
<g id="edge49" class="edge">
<title>Disconnecting-&gt;Connecting</title>
<path fill="none" stroke="#000000" d="M3257.9096,-638.8633C3246.7161,-668.3647 3224.1528,-716.9663 3189.0089,-744.9029 3120.7951,-799.1273 3089.1714,-803.9029 3002.0313,-803.9029 1532.2188,-803.9029 1532.2188,-803.9029 1532.2188,-803.9029 1475.1312,-803.9029 1412.4282,-791.798 1362.5156,-779.1583"/>
<polygon fill="#000000" stroke="#000000" points="1363.2665,-775.7374 1352.7091,-776.6266 1361.5167,-782.5152 1363.2665,-775.7374"/>
<text text-anchor="middle" x="2164.3829" y="-808.1029" font-family="Times,serif" font-size="14.00" fill="#000000">SetPush</text>
</g>
<!-- Decision1&#45;&gt;WaitForSessionId -->
<g id="edge7" class="edge">
<title>Decision1-&gt;WaitForSessionId</title>
<path fill="none" stroke="#000000" d="M676.5813,-804.8116C737.4004,-812.3157 834.6118,-824.31 900.1006,-832.3903"/>
<polygon fill="#000000" stroke="#000000" points="899.9749,-835.9012 910.3283,-833.6522 900.8322,-828.9539 899.9749,-835.9012"/>
<text text-anchor="middle" x="802.1894" y="-833.1029" font-family="Times,serif" font-size="14.00" fill="#000000">VersionOk [no session id]</text>
</g>
<!-- Decision1&#45;&gt;Connecting -->
<g id="edge8" class="edge">
<title>Decision1-&gt;Connecting</title>
<path fill="none" stroke="#000000" d="M686.904,-793.0939C802.6185,-784.7028 1041.717,-767.3645 1174.5572,-757.7315"/>
<polygon fill="#000000" stroke="#000000" points="1174.9984,-761.2088 1184.719,-756.9946 1174.4921,-754.2271 1174.9984,-761.2088"/>
<text text-anchor="middle" x="969.0934" y="-782.1029" font-family="Times,serif" font-size="14.00" fill="#000000">VersionOk [has session id]</text>
</g>
<!-- Decision2&#45;&gt;Polling -->
<g id="edge21" class="edge">
<title>Decision2-&gt;Polling</title>
<path fill="none" stroke="#000000" d="M2246.0917,-284.4638C2356.6971,-288.2953 2541.6794,-296.1461 2553.0391,-306.1029 2584.3056,-333.5081 2543.7084,-366.5712 2571.0391,-397.9029 2589.6366,-419.2229 2618.1256,-431.0836 2644.5784,-437.6776"/>
<polygon fill="#000000" stroke="#000000" points="2644.0649,-441.1501 2654.5922,-439.9557 2645.6178,-434.3245 2644.0649,-441.1501"/>
<text text-anchor="middle" x="2415.151" y="-311.1029" font-family="Times,serif" font-size="14.00" fill="#000000">NotAloneInSession [2+ members &amp; 'poll' mode]</text>
</g>
<!-- Decision2&#45;&gt;Pushing -->
<g id="edge22" class="edge">
<title>Decision2-&gt;Pushing</title>
<path fill="none" stroke="#000000" d="M2252.908,-280.7136C2393.4126,-279.5715 2676.0027,-280.3126 2914.5937,-299.9029 2917.1287,-300.111 2919.7033,-300.3385 2922.3015,-300.582"/>
<polygon fill="#000000" stroke="#000000" points="2922.1083,-304.0801 2932.4071,-301.5931 2922.8052,-297.1148 2922.1083,-304.0801"/>
<text text-anchor="middle" x="2711.2589" y="-300.1029" font-family="Times,serif" font-size="14.00" fill="#000000">NotAloneInSession [2+ members &amp; 'push' mode]</text>
</g>
<!-- Decision3&#45;&gt;Polling -->
<g id="edge28" class="edge">
<title>Decision3-&gt;Polling</title>
<path fill="none" stroke="#000000" d="M2249.5988,-393.7416C2328.5434,-396.2136 2449.0964,-401.9425 2553.0391,-415.1029 2583.205,-418.9223 2616.2667,-425.048 2644.3318,-430.8343"/>
<polygon fill="#000000" stroke="#000000" points="2643.9262,-434.3251 2654.4308,-432.9458 2645.3588,-427.4732 2643.9262,-434.3251"/>
<text text-anchor="middle" x="2415.151" y="-420.1029" font-family="Times,serif" font-size="14.00" fill="#000000">NotAloneInSession [2+ members &amp; 'poll' mode]</text>
</g>
<!-- Decision3&#45;&gt;Pushing -->
<g id="edge29" class="edge">
<title>Decision3-&gt;Pushing</title>
<path fill="none" stroke="#000000" d="M2250.5288,-390.2562C2381.125,-386.8038 2636.7497,-376.3032 2851.4787,-344.9029 2874.6902,-341.5086 2899.6327,-336.4597 2922.4078,-331.2848"/>
<polygon fill="#000000" stroke="#000000" points="2923.4086,-334.6458 2932.3638,-328.9841 2921.8325,-327.8256 2923.4086,-334.6458"/>
<text text-anchor="middle" x="2711.2589" y="-378.1029" font-family="Times,serif" font-size="14.00" fill="#000000">NotAloneInSession [2+ members &amp; 'push' mode]</text>
</g>
<!-- Decision4&#45;&gt;WaitForSessionId -->
<g id="edge46" class="edge">
<title>Decision4-&gt;WaitForSessionId</title>
<path fill="none" stroke="#000000" d="M3522.4559,-267.4146C3502.5954,-366.9386 3398.1277,-856.9029 3266.3252,-856.9029 1268.725,-856.9029 1268.725,-856.9029 1268.725,-856.9029 1189.5643,-856.9029 1098.8067,-851.2653 1038.112,-846.683"/>
<polygon fill="#000000" stroke="#000000" points="1038.1263,-843.1739 1027.8881,-845.8996 1037.5915,-850.1534 1038.1263,-843.1739"/>
<text text-anchor="middle" x="2164.3829" y="-861.1029" font-family="Times,serif" font-size="14.00" fill="#000000">Connected [no session id]</text>
</g>
<!-- Decision4&#45;&gt;RegisterInSession -->
<g id="edge45" class="edge">
<title>Decision4-&gt;RegisterInSession</title>
<path fill="none" stroke="#000000" d="M3482.4232,-239.2627C3375.7697,-213.6548 3092.1728,-148.6756 2851.4787,-121.1029 2658.6656,-99.0152 2609.225,-103.9029 2415.151,-103.9029 1840.045,-103.9029 1840.045,-103.9029 1840.045,-103.9029 1710.3926,-103.9029 1604.4576,-238.9631 1557.843,-309.7431"/>
<polygon fill="#000000" stroke="#000000" points="1554.6965,-308.1624 1552.1902,-318.4565 1560.569,-311.9721 1554.6965,-308.1624"/>
<text text-anchor="middle" x="2711.2589" y="-126.1029" font-family="Times,serif" font-size="14.00" fill="#000000">Connected [has session id]</text>
</g>
<!-- init -->
<g id="node15" class="node">
<title>init</title>
<ellipse fill="#000000" stroke="#000000" cx="1.8" cy="-737.9029" rx="1.8" ry="1.8"/>
</g>
<!-- init&#45;&gt;Idle -->
<g id="edge50" class="edge">
<title>init-&gt;Idle</title>
<path fill="none" stroke="#000000" d="M3.7115,-737.9029C7.8028,-737.9029 18.0308,-737.9029 30.1782,-737.9029"/>
<polygon fill="#000000" stroke="#000000" points="30.2511,-741.403 40.2511,-737.9029 30.2511,-734.403 30.2511,-741.403"/>
</g>
</g>
</svg>